<?xml version="1.0" standalone="no"?>
<!DOCTYPE svg PUBLIC "-//W3C//DTD SVG 20010904//EN"
 "http://www.w3.org/TR/2001/REC-SVG-20010904/DTD/svg10.dtd">
<svg version="1.0" xmlns="http://www.w3.org/2000/svg"
 width="380.000000pt" height="380.000000pt" viewBox="0 0 380.000000 380.000000"
 preserveAspectRatio="xMidYMid meet">
<metadata>
Created by potrace 1.14, written by Peter Selinger 2001-2017
</metadata>
<g transform="translate(0.000000,380.000000) scale(0.100000,-0.100000)"
fill="#000000" stroke="none">
<path d="M85 3684 c-16 -8 -41 -29 -55 -47 l-25 -31 0 -1706 c0 -1689 0 -1705
20 -1732 11 -15 36 -36 56 -47 36 -21 39 -21 1812 -21 1963 0 1827 -5 1878 63
l24 32 3 1695 2 1696 -27 42 c-51 78 117 71 -1873 72 -1591 0 -1788 -2 -1815
-16z"/>
</g>
</svg>
