<svg xmlns="http://www.w3.org/2000/svg" width="16" height="20" viewBox="0 0 16 20">
  <g id="Group_5" data-name="Group 5" transform="translate(-4274 -3743)">
    <path id="download" d="M8,0A8.084,8.084,0,0,0,2.346,2.3,7.8,7.8,0,0,0,0,7.857a7.687,7.687,0,0,0,1.612,4.714s.218.282.254.323L8,20l6.137-7.109c.032-.038.251-.319.251-.319v0A7.685,7.685,0,0,0,16,7.857,7.8,7.8,0,0,0,13.654,2.3,8.084,8.084,0,0,0,8,0ZM8,10.714a2.947,2.947,0,0,1-1.616-.482A2.869,2.869,0,0,1,5.312,8.951,2.81,2.81,0,0,1,5.147,7.3a2.842,2.842,0,0,1,.8-1.463,2.926,2.926,0,0,1,1.49-.782,2.958,2.958,0,0,1,1.681.163A2.9,2.9,0,0,1,10.419,6.27a2.816,2.816,0,0,1-.363,3.607A2.94,2.94,0,0,1,8,10.714Z" transform="translate(4274 3743)" fill="#283064"/>
  </g>
</svg>
