<svg xmlns="http://www.w3.org/2000/svg" width="36.86" height="36.86" viewBox="0 0 36.86 36.86">
  <g id="Group_32" data-name="Group 32" transform="translate(14694 4435)">
    <rect id="Rectangle_4" data-name="Rectangle 4" width="36.86" height="36.86" rx="8" transform="translate(-14694 -4435)" fill="#f5a275"/>
    <g id="bio" transform="translate(-14750.95 -4447.411)">
      <g id="Group_31" data-name="Group 31" transform="translate(63.95 16.411)">
        <g id="Group_30" data-name="Group 30" transform="translate(0 0)">
          <g id="Group_29" data-name="Group 29">
            <g id="Group_28" data-name="Group 28">
              <g id="Group_11" data-name="Group 11" transform="translate(1.235)">
                <g id="Group_10" data-name="Group 10">
                  <path id="Path_72" data-name="Path 72" d="M80.1,21.228a.463.463,0,0,1-.646-.662c.027-.027,9.3-9.3,19.061-.048a.461.461,0,0,1-.637.667c-9.1-8.632-17.753.018-17.778.043Z" transform="translate(-79.318 -16.411)" fill="#fff" fill-rule="evenodd"/>
                </g>
              </g>
              <g id="Group_13" data-name="Group 13" transform="translate(8.065 3.014)">
                <g id="Group_12" data-name="Group 12">
                  <path id="Path_73" data-name="Path 73" d="M164.847,55.074a.462.462,0,0,1-.219-.9c.033-.008,11.421-2.931,13.491,10.416a.462.462,0,0,1-.912.141C175.3,52.39,164.876,55.066,164.847,55.074Z" transform="translate(-164.276 -53.901)" fill="#fff" fill-rule="evenodd"/>
                </g>
              </g>
              <g id="Group_15" data-name="Group 15" transform="translate(0 4.099)">
                <g id="Group_14" data-name="Group 14">
                  <path id="Path_74" data-name="Path 74" d="M70.043,67.425a.462.462,0,1,1,.293.875c-.014,0-4.852,1.568-5.461,8.668a.463.463,0,1,1-.923-.077C64.616,69.183,70.028,67.431,70.043,67.425Z" transform="translate(-63.95 -67.401)" fill="#fff" fill-rule="evenodd"/>
                </g>
              </g>
              <g id="Group_17" data-name="Group 17" transform="translate(0.74 5.519)">
                <g id="Group_16" data-name="Group 16">
                  <path id="Path_75" data-name="Path 75" d="M73.912,99.623a.462.462,0,1,1-.592-.708A5.07,5.07,0,0,0,74.51,96.5a24.836,24.836,0,0,0,.641-3.455,9.876,9.876,0,0,1,2.166-5.078,8.184,8.184,0,0,1,3.029-2.3,7.415,7.415,0,0,1,3.893-.544,10.494,10.494,0,0,1,5.387,2.543.46.46,0,1,1-.588.707,9.614,9.614,0,0,0-4.91-2.333,6.52,6.52,0,0,0-3.415.477,7.255,7.255,0,0,0-2.686,2.039,8.951,8.951,0,0,0-1.958,4.6,26.125,26.125,0,0,1-.67,3.588A5.9,5.9,0,0,1,73.912,99.623Z" transform="translate(-73.154 -85.067)" fill="#fff" fill-rule="evenodd"/>
                </g>
              </g>
              <g id="Group_19" data-name="Group 19" transform="translate(2.445 8.067)">
                <g id="Group_18" data-name="Group 18">
                  <path id="Path_76" data-name="Path 76" d="M95.122,131.988a.462.462,0,1,1-.592-.708,8.355,8.355,0,0,0,1.513-3.218,28.285,28.285,0,0,0,1.134-5.5.416.416,0,0,1,.011-.072,7.7,7.7,0,0,1,1.738-3.937,5.316,5.316,0,0,1,2.363-1.543,5.62,5.62,0,0,1,2.609-.178,5.707,5.707,0,0,1,2.861,1.345c1.371,1.227,1.539,2.732,1.721,4.342.014.129.029.26.054.471.062.525.125,1.134.191,1.746a25.9,25.9,0,0,0,1.754,8.151.463.463,0,1,1-.843.38,26.689,26.689,0,0,1-1.831-8.437c-.058-.554-.116-1.1-.191-1.732-.014-.108-.033-.293-.054-.478-.16-1.432-.309-2.769-1.416-3.758a4.792,4.792,0,0,0-2.394-1.121,4.711,4.711,0,0,0-2.182.145,4.4,4.4,0,0,0-1.957,1.279,6.8,6.8,0,0,0-1.514,3.478,29.311,29.311,0,0,1-1.175,5.687A8.861,8.861,0,0,1,95.122,131.988Z" transform="translate(-94.364 -116.758)" fill="#fff" fill-rule="evenodd"/>
                </g>
              </g>
              <g id="Group_21" data-name="Group 21" transform="translate(3.747 10.642)">
                <g id="Group_20" data-name="Group 20">
                  <path id="Path_77" data-name="Path 77" d="M111.377,163.39a.462.462,0,1,1-.716-.584,21.3,21.3,0,0,0,1.808-2.9,22.309,22.309,0,0,0,1.381-3.1,11.405,11.405,0,0,0,.532-2.456c.058-.428.117-.879.216-1.391a11.015,11.015,0,0,1,.471-1.75,5.366,5.366,0,0,1,.675-1.308,2.644,2.644,0,0,1,3.172-.9,2.864,2.864,0,0,1,1.258,1.017,4.221,4.221,0,0,1,.629,2.919,29.778,29.778,0,0,1-1.883,6.859,33.119,33.119,0,0,1-3.363,6.845.46.46,0,0,1-.725-.568,32.336,32.336,0,0,0,3.226-6.606,28.774,28.774,0,0,0,1.827-6.623,3.314,3.314,0,0,0-.467-2.292,1.971,1.971,0,0,0-.853-.695,1.765,1.765,0,0,0-.988-.106,1.731,1.731,0,0,0-1.088.7,4.413,4.413,0,0,0-.551,1.084,10.15,10.15,0,0,0-.43,1.605c-.1.506-.154.934-.211,1.341a12.072,12.072,0,0,1-.577,2.633,23.181,23.181,0,0,1-1.436,3.23A21.953,21.953,0,0,1,111.377,163.39Z" transform="translate(-110.557 -148.794)" fill="#fff" fill-rule="evenodd"/>
                </g>
              </g>
              <g id="Group_23" data-name="Group 23" transform="translate(17.765 10.577)">
                <g id="Group_22" data-name="Group 22">
                  <path id="Path_78" data-name="Path 78" d="M284.986,148.639a.461.461,0,1,1,.842-.376,17.227,17.227,0,0,1,.947,5.552c.127,1.925.251,3.793.859,4.908a.461.461,0,1,1-.81.441c-.706-1.3-.835-3.262-.97-5.29A16.6,16.6,0,0,0,284.986,148.639Z" transform="translate(-284.946 -147.99)" fill="#fff" fill-rule="evenodd"/>
                </g>
              </g>
              <g id="Group_25" data-name="Group 25" transform="translate(5.436 13.299)">
                <g id="Group_24" data-name="Group 24">
                  <path id="Path_79" data-name="Path 79" d="M136.61,182.283a.462.462,0,0,1,.922.046,25.157,25.157,0,0,1-1.571,7.5,19.483,19.483,0,0,1-3.584,6.06.462.462,0,1,1-.691-.613,18.522,18.522,0,0,0,3.411-5.77,24.177,24.177,0,0,0,1.513-7.227Z" transform="translate(-131.57 -181.844)" fill="#fff" fill-rule="evenodd"/>
                </g>
              </g>
              <g id="Group_27" data-name="Group 27" transform="translate(10.538 20.847)">
                <g id="Group_26" data-name="Group 26">
                  <path id="Path_80" data-name="Path 80" d="M195.892,284.328a.463.463,0,0,1-.768-.517,24.05,24.05,0,0,0,2.1-3.857c.571-1.3,1.038-2.6,1.494-3.9v0a.463.463,0,0,1,.895.084l.069.33a16.752,16.752,0,0,0,1.721,5.155.462.462,0,0,1-.806.451,15.115,15.115,0,0,1-1.553-4.195c-.3.81-.616,1.625-.974,2.441a24.74,24.74,0,0,1-2.176,4.006Z" transform="translate(-195.045 -275.745)" fill="#fff" fill-rule="evenodd"/>
                </g>
              </g>
            </g>
          </g>
        </g>
      </g>
    </g>
  </g>
</svg>
