<svg id="Layer_1" data-name="Layer 1" xmlns="http://www.w3.org/2000/svg" viewBox="0 0 84.49 84.53"><defs><style>.cls-1,.cls-2{fill:#fff;}.cls-2,.cls-3{fill-rule:evenodd;}</style></defs><rect class="cls-1" width="84.49" height="84.49"/><path class="cls-2" d="M33.07,46.54H31.84l0,2.45,1.2,0v2.41H30.62v2.45H29.39v1.22h1.23v3.66h1.23V60l2.46,0v1.2h1.2l0,2.45H34.31V62.46H33.08l0,2.46H29.39V63.69h1.23V62.45H29.39V61.23l-1.22,0V60h1.21l0-1.23H27v3.68H24.5V61.23H23.26v1.22H20.82l0-1.21-1.21,0,0,1.2H18.38V60H17.15v2.45H15.92l0,1.23h6.11l0,1.23-1.2,0v1.17l3.68,0v2.44h1.23V67.35H27V64.91H25.76l0-1.23h2.44v2.41l6.15,0V64.91h1.2v3.66H33.07V71H34.3v1.2l-1.22,0v2.42l-1.23,0v1.22h2.45V77.1l1.21.05v2.43l1.22,0v1.19l1.23,0V78.37h1.22V77.15H38V75.92h1.23V74.7H36.75l0,1.23H34.3V74.69h1.2V73.48l3.68,0V71H40.4l0-1.22h1.22V71h1.18l0-1.2,1.23,0V71l3.69,0v2.43h2.4l0,1.23H47.78v2.45H49v2.46h1.16l0-3.65,1.22,0V72.28l1.23,0v1.2h1.23v-1.2h3.65l0-1.17a29.52,29.52,0,0,0-3.68,0v1.22H52.65V71H50.18l0-1.23H47.77V68.57H45.31l0-1.21-1.21,0V66.11l-1.21,0v1.19H38V64.91h1.23v1.2h3.66V64.91H40.42V63.69H39.19V62.45h2.47v-3.7H39.18l0-1.23h1.19V53.88H39.19V52.65H38l0-2.45,2.43,0V47.76H38V46.54l-1.23,0V45.31l-1.22,0,0,2.43H33.07Z"/><path class="cls-2" d="M35.5,18.38v1.19h1.22v3.69l-1.22,0,0-1.21H34.31v1.22H33.07V22H31.84v3.69h1.22V24.49H34.3v2.44H31.85v2.43H29.39v1.22h3.68v1.22H34.3v1.2l-1.22,0V38h2.44V36.73h1.23V34.32l2.46,0v1.21h1.23V34.3h2.44v1.2h1.21l0,3.67,2.46,0v1.22h1.22v1.21l1.22,0v1.17l-1.2,0,0,2.43-2.44,0v1.22h2.45v3.65H46.53v1.23h1.2l0,1.22H49v1.23h1.2v1.23H49v1.21H47.76v1.22H49L49,60h1.2V58.79l1.2,0,0,1.21,1.21,0v1.23h3.68V60h1.2V56.33H55.11v1.21h1.21l0,1.19-1.21,0,0,1.21-1.23,0V58.77H52.65V56.33h1.2l0-1.22h2.45V53.9l-4.91,0,0-1.23H50.19v-1.2l1.22,0V50.19h-1.2l0-3.64,1.23,0v3.64l1.22,0V49h1.23V47.76H55.1V45.31h1.22V44.08H52.65V41.65H50.21l0-1.23H49l0-1.23h2.43V38H50.19V36.73H47.76V34.3h3.63l0-1.21,1.22,0V31.84H51.43l0-2.45h-1.2l0,1.17L49,30.62v1.23h1.2v1.23H42.86V31.84H40.42c0,1.47.29,1.26-1.21,1.22l0-1.21H38v1.23H35.52l0-3.68H33.06l0-1.23h2.4V24.5H38l0-4.92h1.19v1.22l1.23,0v2.43H39.19v1.22h1.23V27h1.19l0,3.66h1.22v-1.2l1.21,0,0,1.21,1.23,0v1.21h2.44V30.63l-1.23,0V28.16H45.3V27H46.5l0-1.22h1.22v3.66h2.43V27h1.22V24.49H50.19v1.2l-1.18,0,0-1.23H47.78l0-1.21H45.31V20.81H41.64l0-1.23h1.17V17.16h-1.2l0,1.21H38V17.15l-1.22,0,0,1.21Z"/><path class="cls-3" d="M31.84,25.73V27H30.63v1.21H28.16v1.22H25.73v1.22l1.22,0v1.18H25.72l0,1.22,1.2,0v1.2h1.14a3.4,3.4,0,0,1,.07,1.2h1.22V38H28.15v1.23h2.47v2.46H29.38v1.2H27V44c.45.15,4.12.06,4.89.06v2.46h1.23v1.22h2.41l0-2.43,1.22,0v1.21l1.23,0v1.22h2.45v2.41L38,50.2l0,2.45h1.22v1.23h1.23v3.65H39.22l0,1.23h2.47V56.34h1.18l0-1.22H41.66V52.65h1.19l0-1.21h3.68V50.2h1.22V46.54H45.31V45.31l2.44,0,0-2.43,1.2,0V41.65l-1.22,0V40.42H46.54V39.19l-2.46,0,0-3.67H42.84v3.69H41.64V36.74H40.41V38H39.19v1.23l-3.68,0V38H33.07V33.07l1.22,0v-1.2H33.07V30.62H29.38V29.39h2.45V27h2.44V24.5H33.07v1.23Z"/><path class="cls-3" d="M45.3,20.81v2.46h2.45l0,1.21H49l0,1.23,1.18,0v-1.2h1.24V27H50.2v2.43H47.76V25.73H46.54l0,1.22H45.31v1.2h1.23v2.45l1.23,0v1.21H45.31V30.62l-1.23,0,0-1.21-1.21,0v1.2H41.64l0-3.66H40.42V24.5H39.19V27H38v1.21h1.23V27h1.22v3.65H38v1.22h1.22l0,1.21c1.5,0,1.2.25,1.21-1.22h2.43v1.23h7.33V31.84H49V30.62l1.19-.06,0-1.17h1.2V27h1.23V24.5h2.46v1.22h2.43v3.65h1.22l0-1.23h3.68V27H60V25.73l-1.22,0V24.49H56.34V22h1.2v1.22H60V22h1.24v1.22l2.46,0V20.82h1.23V22a13,13,0,0,0,2.44.06l0-1.22h1.2l0-1.22H69.8v-1.2H68.59l0-1.23H67.34v2.44l-1.23,0v-1.2a4.05,4.05,0,0,0-1.21.07v1.15H63.68v-1.2H62.46v1.2H57.54V18.44a12.83,12.83,0,0,0-2.43-.07V17.16H53.88V15.92H51.42V14.69H49v2.45H47.76l0-3.68h3.65V12.23H46.54l0,6.14,1.2,0v1.19H46.54v1.23Z"/><path class="cls-3" d="M51.42,51.42h1.21l0,1.22H51.41l0,1.23,4.91,0v1.2H53.88l0,1.22h-1.2v2.44h1.22V60l1.23,0,0-1.21,1.21,0,0-1.19H55.11V56.33h2.43V60h-1.2v1.23h1.21v1.21h1.2l0-4.9H60l0,3.67,1.23,0V60h1.22V58.77h1.22V60h1.21l0,1.23H63.69v1.23h1.24V61.23h3.66V60H67.34V58.78l2.45,0V57.55H68.57V56.33h3.68l0-1.22h1.19l0-3.66,2.44,0V50.2H72.25V47.81l0,2.44a3.41,3.41,0,0,1-1.2,0h1.18v2.45H68.57V51.43H67.34V50.2H66.12V49a3,3,0,0,0-1.2.06V50.2H62.45V49H61.22l.06,1.21h1.17v1.23l-3.69,0,0-1.2H55.12v1.23h2.42l0,1.22H53.88V49H52.65V50.2l-1.22,0V46.54l-1.23,0,0,3.64h1.2Z"/><path class="cls-3" d="M3.7,47.76V49H4.9a3.73,3.73,0,0,1-.08,1.21H3.68v2.45h1.2v-1.2l2.45,0V50.2H8.58v1.23H9.81V50.19H11l0,1.22h1.17l0,2.46H9.79l0,1.23h3.65V53.9l1.22,0V52.65H13.46V50.18l2.44,0,0,1.22h1.23V49H15.93V47.76h1.24V46.53h1.22V44.1l-1.2,0,0,1.21-1.22,0v1.22H14.69V44.08H13.47V39.18H9.81V38H8.58v1.22H7.35l0,1.23H6.12V38H4.89V36.73H3.7l0,2.44-1.22,0v1.23H4.9v1.21l2.45,0v1.21H6.14l0,1.23H4.89V42.85H2.49l0,2.46H6.11v2.45Z"/><polygon class="cls-3" points="71.03 66.11 71.03 69.78 66.12 69.8 66.11 68.57 63.69 68.57 63.7 69.79 64.91 69.83 64.95 72.25 66.11 72.27 66.11 73.45 69.8 73.46 69.8 71.03 71.03 71.03 71.03 74.68 68.59 74.69 68.57 75.91 69.79 75.92 69.8 77.13 66.12 77.15 66.12 78.38 67.35 78.37 67.31 79.6 66.11 79.61 66.11 80.79 67.31 80.81 67.35 82.02 69.81 82.04 69.81 80.8 71.01 80.81 71.03 82.03 74.7 82.04 74.68 80.81 78.38 80.81 78.38 79.6 77.17 79.6 77.14 78.38 74.7 78.37 74.69 77.16 77.14 77.14 77.15 74.69 79.6 74.69 79.6 73.48 78.37 73.46 78.37 72.28 77.17 72.25 77.14 71.03 75.92 71.02 75.92 68.57 78.37 68.57 78.37 67.36 73.46 67.34 73.46 64.91 72.26 64.91 72.26 66.09 71.03 66.11"/><path class="cls-3" d="M68.57,42.85v1.23H67.34v1.23l-1.22,0V44.07H61.23v1.24h1.23v1.22l1.22,0V45.3l1.22,0,0,2.43h1.17V49h2.47v1.2h1.21l0,1.22H71l0-1.22a3.41,3.41,0,0,0,1.2,0l0-2.44,1.21-.05V46.54h1.23v1.22h1.22V45.31h1.22v1.22h1.24V45.31H79.6V44.08H82V42.85H80.8v-1.2H78.38V40.41H77.15V39.19l-3.67,0,0-1.2H72.26v1.22H71V38H69.8l0-1.22h-1.2V38H67.35v1.21h1.22l0,1.22H69.8v2.43Z"/><polygon class="cls-3" points="62.46 28.16 62.45 30.61 61.23 30.61 61.22 31.84 57.54 31.84 57.53 33.07 56.34 33.08 56.33 35.5 57.55 35.51 57.55 34.31 58.77 34.29 58.77 33.09 62.46 33.07 62.45 35.5 61.25 35.51 61.22 36.74 58.76 36.73 58.77 37.94 62.45 37.96 62.46 39.18 63.68 39.18 63.68 36.74 64.91 36.72 64.92 35.5 66.11 35.5 66.11 31.86 67.34 31.84 67.35 34.29 69.8 34.3 69.8 35.5 75.92 35.51 75.92 33.07 77.15 33.07 77.14 31.84 74.7 31.84 74.69 29.38 71.03 29.39 71.03 28.15 68.57 28.16 68.57 25.73 67.37 25.72 67.34 24.5 66.12 24.5 66.11 25.73 64.92 25.72 64.91 24.52 61.23 24.49 61.23 25.73 64.91 25.72 64.91 26.92 67.34 26.95 67.34 28.16 64.94 28.16 64.91 29.38 66.1 29.39 66.12 30.61 64.9 30.6 64.9 29.39 63.68 29.39 63.68 28.18 62.46 28.16"/><polygon class="cls-3" points="31.84 75.92 31.84 77.14 33.07 77.16 33.05 78.36 31.84 78.38 31.85 79.6 33.06 79.61 33.07 80.81 35.47 80.81 35.51 82.01 41.64 82.03 41.64 80.82 40.41 80.81 40.41 79.6 41.62 79.6 41.65 78.4 40.43 78.37 40.41 77.14 47.77 77.14 47.78 74.69 50.2 74.69 50.16 73.46 47.76 73.46 47.77 71.03 44.08 71.01 44.08 69.8 42.85 69.83 42.83 71.03 41.65 71.03 41.64 69.81 40.42 69.8 40.4 71.02 39.19 71.03 39.19 73.46 35.51 73.48 35.5 74.69 34.3 74.69 34.3 75.92 36.73 75.92 36.75 74.69 39.18 74.7 39.19 75.91 37.96 75.92 37.97 77.14 39.19 77.14 39.17 78.37 37.96 78.37 37.96 80.81 36.73 80.79 36.73 79.6 35.51 79.58 35.51 77.15 34.3 77.1 34.29 75.92 31.84 75.92"/><polygon class="cls-3" points="14.69 11.03 13.49 11.03 13.46 9.82 14.69 9.8 14.7 8.58 19.58 8.57 19.58 11.03 18.41 11.03 18.37 9.83 17.15 9.8 17.15 13.46 15.94 13.47 15.93 14.69 17.14 14.7 17.16 15.92 18.38 15.93 18.38 18.38 19.57 18.38 19.59 14.7 18.38 14.7 18.39 13.47 19.59 13.48 19.59 14.69 22.04 14.69 22.05 13.48 25.73 13.46 25.71 12.25 23.27 12.24 23.27 8.58 24.49 8.57 24.5 4.89 23.29 4.89 23.27 6.12 19.58 6.12 19.57 4.9 18.38 4.88 18.38 3.69 20.78 3.69 20.82 2.46 15.92 2.46 15.92 3.68 14.74 3.68 14.69 4.89 12.25 4.9 12.24 12.2 14.69 12.24 14.69 11.03"/><path class="cls-2" d="M56.34,6.12V7.34H55.11V8.57l1.22,0V9.81h1.2v2.44H53.88V8.58H52.65V6.12l-1.21,0V7.35H49V6.13H47.76V8.58H50.2l0,2.45H49V9.81H47.76l0,1.23h-1.2v1.2h4.88v1.24H47.78l0,3.68H49V14.69h2.42v1.24h2.46v1.23h1.23V15.93l1.22,0V14.69h1.19l0,1.19,2.45,0V13.47H58.77V9.82L60,9.8v2.42h2.46V11H61.23V7.35H60L60,4.9l-1.2,0V3.68l2.44,0h-2.3c0-.22,0-.44,0-.66,0-.4.08-.4-.15-.54V3.68H57.55V6.12Z"/><path class="cls-3" d="M56.34,67.34v2.45H53.88V68.57H47.76V69.8H50.2l0,1.23h2.47v1.22h1.23V71a29.52,29.52,0,0,1,3.68,0l0,1.17H53.88v1.2H55.1v1.22h1.22V73.46h1.2v1.22H60l0,2.44h2.45V75.92h1.23V74.69H64.9v1.22h1.21V73.45H63.68v-1.2H62.46V68.57h1.23V67.34H62.45l0-1.22h-1.2v1.22H60v1.22H58.76V64.92H60V63.68H57.54v3.61a4,4,0,0,1-1.2,0"/><path class="cls-3" d="M36.73,6.12V7.35h2.45v6.12h2.44l0,1.22h1.19v1.23H45.3V14.7H44.07V13.48h1.23V12.24h1.23V11h1.2l0-1.23H49V11h1.16l0-2.45H47.77V6.12H45.31V4.89H44.08V3.68l-1.23,0V7.35h-1.2V6.14l-1.23,0V4.89h1.22V2.49l-2.46,0V3.68H38a14,14,0,0,0,0,2.44Z"/><polygon class="cls-3" points="45.3 58.76 45.3 59.99 46.52 60 46.53 62.45 45.3 62.45 45.31 66.12 44.07 66.11 44.08 67.32 45.29 67.35 45.31 68.56 47.76 68.57 47.76 64.93 46.57 64.91 46.53 63.68 49 63.69 49 64.91 50.19 64.91 50.19 66.09 51.41 66.11 51.43 64.91 52.65 64.91 52.65 67.33 53.87 67.35 53.88 68.57 55.11 68.57 55.11 67.34 56.34 67.34 56.33 66.13 55.11 66.11 55.11 64.92 56.32 64.91 56.34 63.68 57.53 63.68 57.54 62.45 56.35 62.45 56.33 61.23 52.66 61.23 52.64 60 51.43 59.98 51.4 58.77 50.2 58.79 50.19 60 48.99 60 48.97 57.55 47.76 57.55 47.76 56.34 46.54 56.33 46.53 58.77 45.3 58.76"/><polygon class="cls-3" points="2.46 82.04 11.03 82.03 11.03 73.48 2.49 73.46 2.46 82.04"/><polygon class="cls-3" points="73.46 2.97 73.46 10.4 73.47 11.02 82 11.03 82.04 2.45 73.46 2.46 73.46 2.97"/><polygon class="cls-3" points="2.46 11.03 11.02 11.03 11.03 2.49 2.46 2.46 2.46 11.03"/><polygon class="cls-2" points="62.46 39.18 62.45 40.41 61.22 40.41 61.23 41.65 63.66 41.64 63.68 40.42 64.9 40.41 64.91 41.61 66.11 41.65 66.11 42.84 67.33 42.85 67.34 41.65 68.57 41.64 68.57 42.85 69.81 42.85 69.8 40.42 68.59 40.41 68.57 39.19 67.35 39.18 67.35 37.97 68.57 37.96 68.58 36.73 69.78 36.74 69.8 37.96 71.03 37.96 71.03 39.18 72.25 39.18 72.26 37.96 73.45 37.96 73.47 39.16 77.14 39.19 77.15 40.42 78.37 40.41 78.37 37.96 74.69 37.94 74.7 36.74 77.14 36.73 77.15 33.07 75.92 33.07 75.92 35.51 69.8 35.5 69.8 34.3 67.35 34.29 67.34 31.84 66.11 31.86 66.11 35.5 64.92 35.5 64.91 36.72 63.68 36.74 63.68 39.18 62.46 39.18"/><polygon class="cls-3" points="7.34 66.12 8.58 66.12 8.57 63.68 9.8 63.69 9.81 64.91 11.03 64.92 11.03 66.09 9.83 66.12 9.8 67.34 7.35 67.34 7.35 68.57 8.57 68.58 8.58 69.8 12.24 69.8 12.22 71.03 13.46 71.03 13.46 68.57 12.23 68.56 12.24 66.13 13.46 66.11 13.46 64.92 12.24 64.89 12.23 63.69 13.46 63.69 13.47 61.23 8.58 61.23 8.57 62.45 7.35 62.45 7.37 60 8.58 59.99 8.55 58.78 7.35 58.76 7.35 57.54 6.15 57.57 6.12 61.22 4.89 61.22 4.89 60.01 3.7 60 3.69 61.2 2.46 61.23 2.46 63.68 3.68 63.67 3.69 62.45 6.12 62.45 6.13 64.9 7.35 64.91 7.34 66.12"/><polygon class="cls-3" points="13.46 63.69 13.46 64.92 17.15 64.93 17.16 66.12 15.93 66.12 15.92 67.34 14.7 67.33 14.67 66.12 13.46 66.11 13.46 68.57 14.68 68.57 14.7 69.79 15.93 69.8 15.93 71.02 17.14 71.02 17.15 68.57 18.37 68.58 18.38 69.8 19.58 69.8 19.59 68.6 20.81 68.56 20.81 69.8 19.58 69.8 19.6 71.02 20.81 71.03 20.8 72.26 22.04 72.26 22.04 69.8 23.27 69.8 23.27 68.57 24.5 68.57 24.49 66.13 20.81 66.11 20.81 64.94 22.01 64.91 22.05 63.68 15.94 63.68 15.92 62.45 14.7 62.46 14.68 63.68 13.46 63.69"/><path class="cls-2" d="M56.33,61.23l0,1.22h1.19v1.23H56.34l0,1.22-1.21,0v1.2h1.22v1.21a4,4,0,0,0,1.2,0V63.68H60v1.23H58.77v3.65H60V67.35h1.23V66.12h1.2l0,1.22h1.23V66.13h1.23v1.26l0-1.26a6.07,6.07,0,0,1,0-1.21h2.47l-2.36,0,0-1.25a4.21,4.21,0,0,1,0-1.23H63.68V61.22h1.22l0-1.23H63.68V58.76H62.46V60H61.23v1.24l-1.23,0,0-3.67h-1.2l0,4.9h-1.2V61.24Z"/><path class="cls-3" d="M11,34.31h1.2v2.41l1.21,0,0,1.2,1.22,0v1.22h1.23v1.22H14.69v2.43h1.24V41.64h1.21l0-1.23h1.23v1.22h1.2V40.45l4.9,0,0-1.23h1.22V36.73h1.21V38h1.2V35.5A3.48,3.48,0,0,1,27,35.44V34.3H25.72v1.2H23.27v3.69H17.15V38H15.93l0-1.23H14.7l0-1.22-1.2,0V34.3h2.45v1.2h2.46V34.31H17.16V33.07H11Z"/><polygon class="cls-2" points="23.27 23.26 23.27 24.5 24.5 24.5 24.49 25.72 23.27 25.73 23.28 26.95 24.5 26.96 24.49 28.16 25.71 28.16 25.73 29.39 28.15 29.39 28.16 28.17 30.62 28.16 30.63 26.95 31.85 26.95 31.84 25.73 30.62 25.73 30.61 22.04 28.16 22.04 28.15 18.38 26.96 18.38 26.92 19.58 25.72 19.59 25.73 20.81 26.94 20.81 26.95 22.04 24.5 22.04 24.5 23.27 23.27 23.26"/><polygon class="cls-2" points="4.89 52.65 8.57 52.66 8.57 53.88 7.35 53.88 7.35 55.11 8.57 55.11 8.58 57.54 7.35 57.57 6.15 57.57 7.35 57.54 7.35 58.76 8.55 58.78 8.58 59.99 7.37 60 7.35 62.45 8.57 62.45 8.58 61.23 13.47 61.23 13.46 55.11 9.81 55.11 9.79 53.88 12.24 53.88 12.21 51.42 11.04 51.42 11.03 52.64 9.8 52.65 9.81 51.42 8.57 51.42 8.58 50.2 7.35 50.2 7.35 51.42 4.9 51.45 4.89 52.65"/><path class="cls-3" d="M20.8,30.61H22l0,2.46H20.8v1.22l-1.22,0v1.2H18.38v1.21l-1.21,0,0,1.22H22V36.73H19.58V35.51h1.16a3.4,3.4,0,0,0,.07-1.2H22v1.2h1.23V33.07h1.23V30.62H23.27V29.39h2.45l0-1.23H24.49V27H23.28V25.73h1.22V24.5H23.27V23.26H22V22H20.81v1.23H18.38v1.22h1.2v2.44h1.18l.05-1.2,1.22,0v2.44H19.59v1.19l1.22,0Z"/><path class="cls-3" d="M47.76,6.12H49V7.35h2.43V6.14l1.21,0V8.57h1.23v3.66h3.66V9.8h-1.2V8.6l-1.22,0V7.35H53.87V4.89h1.23V3.69h1.23V6.12h1.2V3.69h1.22V2.51a56.2,56.2,0,0,0-6.12,0V3.68H49V2.48l-1.23,0V3.69H49V4.86l-1.2,0Z"/><polygon class="cls-3" points="24.5 68.57 24.49 69.8 23.27 69.8 23.27 72.25 24.5 72.26 24.49 73.46 25.71 73.47 25.73 74.69 26.95 74.69 26.95 72.25 25.76 72.25 25.72 71.03 28.16 71.03 28.16 72.24 29.38 72.26 29.38 68.57 26.95 68.57 26.96 67.34 33.06 67.36 33.07 68.57 35.51 68.57 35.5 64.91 34.3 64.91 34.3 66.11 28.16 66.09 28.16 63.68 25.72 63.68 25.76 64.91 26.95 64.91 26.95 67.34 25.73 67.34 25.73 68.57 24.5 68.57"/><path class="cls-2" d="M61.23,22.05H60v1.23H57.54V22h-1.2v2.45h2.43V25.7l1.22,0V27h2.44v1.21h1.22v1.22H64.9V30.6l1.22,0,0-1.23H64.91l0-1.22h2.4V27l-2.43,0v-1.2H61.23V24.49l3.68,0v1.2h1.19V24.5h1.22V22A13,13,0,0,1,64.9,22V20.81H63.68v2.43l-2.46,0Z"/><polygon class="cls-3" points="29.38 9.8 29.39 8.59 30.61 8.57 30.61 9.8 31.85 9.8 31.83 12.24 30.61 12.24 30.61 13.46 31.83 13.47 31.84 14.69 33.08 14.69 33.07 13.47 34.31 13.46 34.31 12.24 36.73 12.24 36.73 11.04 37.93 11.03 37.96 8.58 36.74 8.57 36.73 7.35 35.51 7.35 35.5 8.58 31.85 8.57 31.84 7.35 33.07 7.34 33.06 6.14 30.63 6.12 30.61 7.35 28.16 7.35 28.16 8.58 26.95 8.58 26.95 11.03 28.16 11.03 28.16 9.83 29.38 9.8"/><polygon class="cls-3" points="52.66 31.84 52.65 33.07 51.43 33.09 51.39 34.3 47.76 34.3 47.76 36.73 50.19 36.73 50.19 37.95 51.42 37.96 51.41 39.19 52.65 39.18 52.65 40.42 53.86 40.41 53.88 39.19 56.34 39.19 56.33 36.74 55.11 36.73 55.11 37.95 53.88 37.96 53.88 34.3 55.1 34.29 55.11 33.07 56.34 33.08 56.34 31.85 55.11 31.84 55.11 30.61 53.88 30.62 53.88 31.84 52.66 31.84"/><polygon class="cls-3" points="8.58 30.61 11.04 30.61 11.04 29.38 9.8 29.39 9.81 28.16 11.03 28.16 11.03 26.95 8.61 26.95 8.57 25.73 7.35 25.73 7.35 24.5 6.13 24.49 6.12 23.28 7.35 23.27 7.35 22.04 6.12 22.03 6.12 20.81 3.69 20.81 3.69 22.04 4.88 22.04 4.89 24.49 3.7 24.49 3.69 23.3 2.46 23.26 2.46 26.95 3.69 26.96 3.69 28.16 8.55 28.16 8.58 30.61"/><polygon class="cls-2" points="56.34 39.19 62.46 39.18 62.45 37.96 58.77 37.94 58.76 36.73 61.22 36.74 61.25 35.51 62.45 35.5 62.46 33.07 58.77 33.09 58.77 34.29 57.55 34.31 57.55 35.51 56.33 35.5 56.34 33.08 55.11 33.07 55.1 34.29 53.88 34.3 53.88 37.96 55.11 37.95 55.11 36.73 56.33 36.74 56.34 39.19"/><polygon class="cls-2" points="3.73 9.72 9.73 9.74 9.73 3.74 3.75 3.74 3.73 9.72"/><polygon class="cls-2" points="3.73 80.74 9.71 80.76 9.74 74.77 3.74 74.76 3.73 80.74"/><polygon class="cls-2" points="74.76 9.73 80.75 9.73 80.76 3.75 74.78 3.73 74.76 9.73"/><polygon class="cls-3" points="11.04 29.38 13.46 29.38 13.49 28.16 15.91 28.16 15.92 29.38 17.16 29.39 17.15 26.95 18.35 26.95 18.38 25.75 15.92 25.73 15.92 24.5 17.14 24.49 17.15 23.28 14.7 23.27 14.69 22.04 13.46 22.03 13.47 23.27 12.23 23.28 12.23 24.49 9.8 24.49 9.81 25.73 12.24 25.72 12.24 28.16 11.05 28.16 11.04 29.38"/><polygon class="cls-2" points="51.41 29.38 53.88 29.38 53.88 28.16 55.11 28.16 55.11 26.95 56.34 26.96 56.33 30.59 55.11 30.61 55.11 31.84 56.34 31.85 56.34 33.08 57.53 33.07 57.54 31.84 61.22 31.84 61.23 30.61 58.77 30.61 58.76 29.39 57.54 29.38 57.54 25.73 55.11 25.73 55.11 24.51 52.65 24.5 52.65 26.95 51.42 26.96 51.41 29.38"/><path class="cls-2" d="M18.38,47.77V49H17.16v2.42H15.92v1.23h1.21l0,1.22h1.21V52.65h1.19l0,1.2,1.22,0V52.67l1.22,0V51.43h1.22V50.19H24.5V49h1.22l0-1.22H23.27V49H22v1.2H20.81A3.44,3.44,0,0,0,20.74,49H19.58V47.76h.13c0-.22,0-.44,0-.66s.08-.4-.15-.53v1.18Z"/><polygon class="cls-2" points="25.73 55.11 25.73 57.54 23.27 57.54 23.27 56.33 22.05 56.33 22.04 55.11 20.81 55.11 20.81 57.54 19.6 57.55 19.58 58.77 18.38 58.76 18.38 59.99 20.8 60 20.8 61.23 23.27 61.23 23.27 58.76 25.72 58.77 25.72 57.54 26.92 57.54 26.96 56.34 28.16 56.33 28.16 57.51 29.39 57.55 29.38 55.11 28.16 55.09 28.16 53.88 26.95 53.88 26.94 55.1 25.73 55.11"/><polygon class="cls-2" points="36.73 11.04 36.73 12.24 34.31 12.24 34.31 13.46 35.48 13.47 35.5 15.93 40.41 15.92 40.42 14.7 41.65 14.69 41.63 13.47 39.19 13.47 39.18 7.35 36.73 7.35 36.74 8.57 37.96 8.58 37.93 11.03 36.73 11.04"/><polygon class="cls-3" points="61.21 3.71 58.77 3.69 58.77 4.87 59.97 4.9 60 7.34 61.22 7.35 61.23 11.03 62.46 11.04 62.45 8.58 63.68 8.57 63.69 7.35 62.45 7.35 62.46 4.89 64.9 4.9 64.91 6.12 66.12 6.12 66.12 3.72 68.55 3.68 68.58 2.46 64.91 2.46 64.91 3.67 62.48 3.69 62.45 2.46 61.23 2.46 61.21 3.71"/><polygon class="cls-3" points="74.69 14.69 75.92 14.69 75.92 13.47 78.36 13.47 78.37 14.68 77.15 14.7 77.14 17.15 75.92 17.15 75.91 18.38 77.15 18.38 77.14 19.58 78.35 19.59 78.38 20.8 79.6 20.8 79.61 19.59 82.04 19.59 82.04 17.15 80.81 17.16 80.8 18.38 78.4 18.38 78.37 15.92 79.6 15.91 79.6 12.25 73.48 12.24 73.46 13.44 74.66 13.47 74.69 14.69"/><polygon class="cls-3" points="23.27 58.76 23.27 61.23 24.5 61.23 24.5 62.45 26.95 62.45 26.96 58.77 29.36 58.77 29.38 60 31.84 60 31.84 58.76 30.61 58.77 30.61 55.11 29.38 55.11 29.39 57.55 28.16 57.51 28.16 56.33 26.96 56.34 26.92 57.54 25.72 57.54 25.72 58.77 23.27 58.76"/><polygon class="cls-3" points="23.27 51.42 24.48 51.43 24.5 53.88 25.73 53.89 25.73 55.11 26.94 55.1 26.95 53.88 28.16 53.88 28.16 55.09 29.38 55.11 29.39 53.89 30.61 53.88 30.62 51.43 28.17 51.43 28.16 52.65 25.73 52.65 25.73 50.2 29.39 50.2 29.39 48.99 26.99 48.99 26.95 47.79 25.73 47.76 25.71 48.98 24.49 48.99 24.5 50.19 23.27 50.19 23.27 51.42"/><polygon class="cls-3" points="8.58 30.61 7.35 30.61 7.34 29.39 3.68 29.39 3.68 28.21 2.48 28.16 2.46 30.61 3.69 30.62 3.69 31.82 2.45 31.84 2.46 33.07 4.89 33.07 4.89 35.48 6.12 35.51 6.12 31.86 7.35 31.84 7.35 35.5 8.58 35.5 8.58 30.61"/><polygon class="cls-3" points="56.34 14.69 56.33 15.91 55.11 15.93 55.11 17.16 61.23 17.16 61.23 15.93 62.45 15.92 62.46 14.69 63.68 14.69 63.69 13.47 62.45 13.47 62.45 12.23 60 12.22 60 9.8 58.77 9.82 58.77 13.46 60 13.47 59.99 15.93 57.55 15.89 57.52 14.7 56.34 14.69"/><polygon class="cls-3" points="71.03 23.27 74.69 23.27 74.69 24.48 77.15 24.5 77.14 26.95 78.38 26.94 78.37 24.5 79.61 24.5 79.62 22.04 78.37 22.04 78.37 23.26 77.14 23.27 77.15 22.04 74.69 22.02 74.69 20.8 73.46 20.8 73.45 19.59 71.06 19.59 71.02 20.81 72.24 20.82 72.26 22.01 71.04 22.05 71.03 23.27"/><polygon class="cls-3" points="63.69 12.23 63.69 13.47 64.9 13.48 64.91 14.7 66.12 14.69 66.13 12.24 67.34 12.24 67.34 14.69 69.8 14.69 69.8 13.47 68.57 13.47 68.57 11.03 69.78 11.03 69.8 8.59 64.91 8.58 64.91 9.8 66.12 9.8 66.11 11.03 64.91 11.03 64.91 12.2 63.69 12.23"/><polygon class="cls-2" points="53.88 48.99 53.88 52.65 57.55 52.65 57.53 51.43 55.11 51.42 55.12 50.19 58.74 50.2 58.77 51.4 62.46 51.43 62.45 50.2 61.28 50.2 61.22 48.99 60.01 48.98 59.98 47.76 57.55 47.76 57.54 48.98 53.88 48.99"/><polygon class="cls-3" points="33.08 20.8 34.29 20.82 34.31 22.04 35.49 22.04 35.51 23.25 36.73 23.27 36.73 19.58 35.51 19.57 35.5 18.38 33.1 18.38 33.07 15.93 31.84 15.93 31.84 14.69 30.62 14.7 30.61 15.93 29.38 15.93 29.39 17.14 31.84 17.15 31.84 19.59 33.04 19.59 33.08 20.8"/><polygon class="cls-2" points="47.76 68.57 53.88 68.57 53.87 67.35 52.65 67.33 52.65 64.91 51.43 64.91 51.41 66.11 50.19 66.09 50.19 64.91 49 64.91 49 63.69 46.53 63.68 46.57 64.91 47.76 64.93 47.76 68.57"/><polygon class="cls-3" points="17.16 53.88 17.16 56.34 18.38 56.34 18.38 58.76 19.58 58.77 19.6 57.55 20.81 57.54 20.81 55.11 22.04 55.11 22.04 53.88 23.27 53.88 23.27 51.42 22.05 51.43 22.04 52.65 20.82 52.67 20.81 53.88 19.59 53.85 19.57 52.65 18.38 52.66 18.37 53.87 17.16 53.88"/><polygon class="cls-3" points="78.37 40.41 80.78 40.41 80.81 39.19 79.61 39.19 79.6 37.96 80.81 37.96 80.8 36.73 78.37 36.73 78.38 35.5 80.8 35.5 80.81 33.06 79.6 33.07 79.6 34.28 78.41 34.3 78.37 33.08 77.15 33.07 77.14 36.73 74.7 36.74 74.69 37.94 78.37 37.96 78.37 40.41"/><polygon class="cls-2" points="23.27 72.25 23.27 75.91 24.49 75.92 24.5 77.14 25.72 77.14 25.72 75.92 26.95 75.92 26.95 77.1 28.15 77.15 28.16 75.92 26.95 75.92 26.96 74.69 29.38 74.69 29.38 72.26 28.16 72.24 28.16 71.03 25.72 71.03 25.76 72.25 26.95 72.25 26.95 74.69 25.73 74.69 25.71 73.47 24.49 73.46 24.5 72.26 23.27 72.25"/><polygon class="cls-2" points="42.85 15.93 42.85 17.16 44.08 17.15 44.08 19.57 45.27 19.59 45.3 20.81 46.53 20.81 46.54 19.58 47.76 19.58 47.76 18.39 46.56 18.38 46.54 12.23 45.31 12.24 45.31 13.46 44.08 13.48 44.07 14.69 45.3 14.7 45.3 15.92 42.85 15.93"/><polygon class="cls-3" points="13.47 61.23 14.7 61.22 14.7 60 15.91 60 15.92 62.45 17.14 62.45 17.15 60 18.38 59.99 18.38 58.76 17.15 58.77 17.16 56.34 15.92 56.34 15.93 57.54 14.69 57.54 14.69 55.11 13.46 55.11 13.47 61.23"/><polygon class="cls-3" points="73.45 55.11 73.47 56.32 78.35 56.33 78.37 55.11 80.79 55.11 80.81 53.88 77.14 53.88 77.15 51.43 75.91 51.43 75.92 52.65 74.69 52.66 74.68 55.11 73.45 55.11"/><path class="cls-2" d="M62.45,15.92l1.23,0v1.19H62.45v1.23h1.23v1.2H64.9V18.44a4.05,4.05,0,0,1,1.21-.07v1.2l1.23,0V17.15l-1.22,0V14.69H64.91V13.48H63.69v1.22H62.46Z"/><polygon class="cls-3" points="23.27 75.91 23.27 78.38 29.37 78.37 29.39 77.15 30.61 77.14 30.61 75.92 29.39 75.9 29.38 74.69 26.96 74.69 26.95 75.92 28.16 75.92 28.15 77.15 26.95 77.1 26.95 75.92 25.72 75.92 25.72 77.14 24.5 77.14 24.49 75.92 23.27 75.91"/><polygon class="cls-2" points="35.49 28.16 35.5 29.38 37.95 29.39 37.96 30.62 40.41 30.61 40.41 26.96 39.19 26.95 39.19 28.15 37.96 28.16 37.97 26.95 39.19 26.95 39.19 24.49 37.96 24.5 37.94 25.72 36.73 25.74 36.73 28.16 35.49 28.16"/><polygon class="cls-3" points="29.38 72.26 29.38 74.69 30.61 74.69 30.64 73.46 31.83 73.47 31.84 74.7 33.07 74.68 33.07 72.26 34.29 72.24 34.3 71.04 33.07 71.03 33.07 68.57 30.61 68.57 30.63 71.03 31.85 71.04 31.82 72.25 29.38 72.26"/><polygon class="cls-3" points="53.88 48.99 57.54 48.98 57.55 47.76 59.98 47.76 60 46.54 58.77 46.51 58.76 45.31 57.54 45.27 57.54 44.07 56.34 44.08 56.33 45.3 55.11 45.31 55.1 47.76 53.88 47.76 53.88 48.99"/><polygon class="cls-3" points="6.12 15.92 7.35 15.92 7.33 17.15 6.12 17.16 6.11 18.38 8.55 18.38 8.58 13.47 11.04 13.46 11.02 12.25 4.91 12.24 4.89 13.44 7.32 13.47 7.35 14.7 6.13 14.7 6.12 15.92"/><path class="cls-2" d="M23.27,35.5h2.46V34.3H27v1.14a3.48,3.48,0,0,0,1.21.06,3.4,3.4,0,0,0-.07-1.2H27V33.1l-1.2,0,0-1.22H27V30.65l-1.22,0V29.39H23.28v1.22h1.22v2.44H23.26Z"/><polygon class="cls-3" points="78.38 48.99 78.37 50.19 77.15 50.19 77.15 51.43 78.38 51.42 78.37 52.65 80.8 52.65 80.81 53.88 82.03 53.88 82.03 50.19 80.81 50.2 80.81 48.99 82.01 48.99 82.04 47.76 80.79 47.76 80.79 48.99 78.38 48.99"/><path class="cls-2" d="M42.84,63.69V64.9H44a3.42,3.42,0,0,1,.06,1.2h1.24V62.45h1.23V60H45.3V58.76H42.84V60h1.23l0,3.68Z"/><polygon class="cls-3" points="49 79.61 48.99 82.04 50.19 82.04 50.2 80.82 53.88 80.81 53.88 79.6 52.67 79.6 52.65 77.14 51.43 77.14 51.42 75.91 50.2 75.94 50.16 79.6 49 79.61"/><path class="cls-2" d="M17.15,38v1.23h6.11V35.5H22V34.3H20.81a3.4,3.4,0,0,1-.07,1.2H19.58v1.22H22V38Z"/><path class="cls-3" d="M44.07,66.11a3.42,3.42,0,0,0-.06-1.2H42.84V63.69H41.65V62.46H39.19v1.23h1.23v1.22h2.43v1.21H39.19v-1.2H38v2.43h4.89V66.16Z"/><polygon class="cls-3" points="23.27 78.38 20.82 78.35 20.81 77.14 19.58 77.16 19.59 79.58 22.05 79.6 22.04 80.8 23.24 80.81 23.27 82.04 24.5 82.03 24.5 80.81 28.16 80.81 28.16 79.6 23.29 79.6 23.27 78.38"/><polygon class="cls-3" points="71.03 28.15 74.66 28.16 74.69 29.38 75.91 29.39 75.92 28.16 77.15 28.16 77.14 26.95 73.48 26.95 73.46 24.5 72.26 24.5 72.25 25.7 69.8 25.72 69.81 26.95 71.03 26.96 71.03 28.15"/><polygon class="cls-3" points="69.8 58.76 69.8 61.22 71.03 61.22 71.03 60 72.18 60 72.24 62.45 71.02 62.45 71.03 63.68 72.24 63.67 72.26 62.45 74.69 62.46 74.69 60 72.26 60 72.25 57.55 71.07 57.54 71.02 58.74 69.8 58.76"/><polygon class="cls-3" points="28.16 22.04 30.61 22.04 30.62 25.73 31.84 25.73 31.84 22.04 33.08 22.04 33.08 20.8 29.38 20.81 29.39 18.37 28.15 18.38 28.16 22.04"/><polygon class="cls-2" points="29.38 72.26 31.82 72.25 31.85 71.04 30.63 71.03 30.61 68.57 33.07 68.57 33.06 67.36 26.96 67.34 26.95 68.57 29.38 68.57 29.38 72.26"/><path class="cls-2" d="M62.46,46.54l0,1.22H61.23V49h1.23v1.2h2.46V49.06a3,3,0,0,1,1.2-.06V47.77H64.94l0-2.43-1.22,0v1.21Z"/><polygon class="cls-3" points="55.12 41.65 58.73 41.64 58.77 40.44 60 40.41 60.01 41.64 61.23 41.65 61.22 40.41 62.45 40.41 62.46 39.18 56.34 39.19 56.32 40.41 55.1 40.42 55.12 41.65"/><polygon class="cls-3" points="75.92 8.57 79.6 8.57 79.6 4.91 75.94 4.89 75.92 8.57"/><polygon class="cls-3" points="4.89 79.58 8.55 79.6 8.57 75.92 4.9 75.92 4.89 79.58"/><polygon class="cls-3" points="4.89 8.55 8.57 8.58 8.57 4.9 4.91 4.89 4.89 8.55"/><polygon class="cls-2" points="40.41 75.92 44.07 75.92 44.08 72.26 40.4 72.25 40.41 75.92"/><polygon class="cls-2" points="40.41 12.24 44.08 12.24 44.08 8.58 43.73 8.57 40.77 8.57 40.41 8.58 40.41 12.24"/><rect class="cls-1" x="72.26" y="40.41" width="3.66" height="3.66"/><rect class="cls-1" x="8.58" y="40.41" width="3.66" height="3.66"/><rect class="cls-1" x="40.42" y="40.41" width="3.66" height="3.66"/><rect class="cls-1" x="72.26" y="72.26" width="3.66" height="3.66"/><polygon class="cls-3" points="17.16 78.37 18.36 78.37 18.38 75.92 19.47 75.92 19.58 75.92 19.59 74.71 20.8 74.69 20.8 72.26 19.58 72.27 19.59 73.46 18.37 73.46 18.38 72.28 17.15 72.25 17.16 78.37"/><path class="cls-2" d="M62.46,18.38H61.25l0-1.22H55.11v1.21a12.83,12.83,0,0,1,2.43.07v1.14h4.91Z"/><polygon class="cls-3" points="35.5 18.38 36.7 18.38 36.74 17.17 37.96 17.15 37.97 18.37 41.63 18.37 41.65 17.16 40.42 17.15 40.41 15.92 35.5 15.93 35.5 18.38"/><polygon class="cls-2" points="58.76 55.11 60 55.11 60.01 56.32 62.43 56.33 62.46 55.11 61.23 55.11 61.23 53.88 62.46 53.88 62.45 52.66 57.56 52.65 57.55 53.88 58.77 53.88 58.76 55.11"/><polygon class="cls-2" points="67.33 51.42 68.56 51.43 68.57 52.65 72.25 52.65 72.25 50.2 71.08 50.2 71.03 51.42 69.8 51.42 69.78 50.2 68.57 50.19 68.58 48.99 66.11 48.99 66.12 50.19 67.34 50.2 67.33 51.42"/><polygon class="cls-3" points="22.03 22.04 23.26 22.04 23.27 23.26 24.5 23.27 24.5 22.04 26.95 22.04 26.94 20.81 25.73 20.81 25.72 19.59 26.92 19.58 26.96 18.38 28.15 18.38 28.16 17.15 26.95 17.17 26.95 18.37 25.76 18.38 25.72 19.57 24.52 19.59 24.49 20.8 22.06 20.81 22.03 22.04"/><polygon class="cls-2" points="55.12 41.65 55.11 42.85 56.32 42.86 56.34 44.08 57.54 44.07 57.55 42.87 58.73 42.85 58.76 44.08 59.99 44.08 60.01 42.86 61.23 42.85 61.23 41.65 60.01 41.64 60 40.41 58.77 40.44 58.73 41.64 55.12 41.65"/><polygon class="cls-3" points="78.38 79.6 79.6 79.61 79.6 80.8 80.81 80.81 80.81 77.18 82.02 77.14 82.03 74.69 80.82 74.7 80.81 75.92 78.38 75.92 78.37 77.14 79.6 77.15 79.6 78.35 78.37 78.37 78.38 79.6"/><polygon class="cls-2" points="75.91 51.43 77.15 51.43 77.15 50.19 78.37 50.19 78.38 48.99 75.92 48.99 75.91 47.76 74.69 47.76 74.66 48.99 73.47 48.97 73.46 47.77 72.25 47.81 72.25 50.2 75.91 50.2 75.91 51.43"/><polygon class="cls-2" points="42.84 52.65 44.08 52.65 44.07 55.11 46.54 55.11 46.54 51.43 42.86 51.44 42.84 52.65"/><polygon class="cls-2" points="13.46 55.11 14.69 55.11 14.69 57.54 15.93 57.54 15.92 56.34 17.16 56.34 17.16 53.88 15.92 53.88 15.93 52.65 14.69 52.66 14.69 53.88 13.47 53.9 13.46 55.11"/><polygon class="cls-3" points="22.04 46.54 22.04 45.32 24.5 45.3 24.5 44.08 23.27 44.08 23.26 42.84 22.04 42.85 22.04 41.64 20.81 41.65 20.81 46.51 22.04 46.54"/><polygon class="cls-2" points="66.11 73.45 66.11 72.27 64.95 72.25 64.91 69.83 63.7 69.79 63.69 68.57 62.45 68.57 62.45 72.26 63.69 72.26 63.68 73.46 66.11 73.45"/><path class="cls-3" d="M22,47.77H19.59V49h1.16a3.44,3.44,0,0,1,.07,1.21H22V49h1.22V47.76h2.46V46.55H22Z"/><polygon class="cls-3" points="17.16 33.07 20.8 33.07 20.8 30.61 18.37 30.62 18.37 29.41 17.16 29.39 17.16 33.07"/><polygon class="cls-2" points="41.65 58.76 42.84 58.76 42.87 57.54 45.3 57.54 45.3 58.76 46.53 58.77 46.54 56.33 44.08 56.32 44.07 55.11 42.84 55.11 42.82 56.33 41.64 56.34 41.65 58.76"/><polygon class="cls-3" points="67.34 22.04 67.34 24.5 71.02 24.49 71.03 23.27 69.8 23.27 69.8 20.82 68.56 20.81 68.58 22.04 67.34 22.04"/><polygon class="cls-3" points="77.14 61.23 78.38 61.23 78.38 59.99 79.6 59.99 79.6 58.79 77.14 58.77 77.14 57.54 74.71 57.54 74.69 58.75 75.9 58.78 75.92 59.99 77.13 60 77.14 61.23"/><polygon class="cls-3" points="30.62 51.43 33.08 51.42 33.07 49.01 31.87 48.99 31.84 46.54 30.61 46.54 30.62 51.43"/><polygon class="cls-2" points="17.15 37.96 17.17 36.74 18.38 36.71 18.38 35.5 15.92 35.51 15.92 34.31 13.47 34.3 13.47 35.48 14.67 35.51 14.7 36.73 15.9 36.73 15.93 37.96 17.15 37.96"/><polygon class="cls-2" points="36.73 45.31 39.19 45.31 39.18 44.08 37.96 44.08 37.96 42.85 35.5 42.85 35.51 41.64 34.3 41.64 34.3 41.75 34.3 44.08 36.71 44.08 36.73 45.31"/><polygon class="cls-2" points="71.03 31.84 72.26 31.87 72.24 33.06 71.03 33.08 71.04 34.3 74.66 34.3 74.7 33.07 73.48 33.06 73.46 30.61 71.03 30.61 71.03 31.84"/><polygon class="cls-3" points="36.73 36.73 37.95 36.73 37.96 37.95 39.19 37.96 39.2 36.73 40.41 36.73 40.42 35.51 39.19 35.51 39.19 34.3 36.73 34.32 36.73 36.73"/><polygon class="cls-3" points="37.96 24.5 39.19 24.49 39.19 23.27 40.42 23.26 40.41 20.82 39.18 20.81 39.18 19.59 37.99 19.59 37.96 24.5"/><polygon class="cls-3" points="59.99 79.6 60 78.37 57.54 78.38 57.53 79.6 55.11 79.6 55.11 80.8 57.53 80.81 57.54 82.04 58.77 82.04 58.77 79.63 59.99 79.6"/><polygon class="cls-3" points="6.12 55.11 4.89 55.09 4.89 53.88 3.69 53.88 3.68 56.28 2.45 56.34 2.46 58.76 4.89 58.77 4.88 57.54 3.69 57.54 3.69 56.33 6.09 56.33 6.12 55.11"/><polygon class="cls-3" points="23.26 15.93 20.81 15.93 20.82 17.13 25.71 17.15 25.72 14.71 23.28 14.69 23.26 15.93"/><polygon class="cls-3" points="7.35 67.34 7.34 66.12 4.89 66.11 4.89 64.91 3.68 64.91 3.69 66.08 2.49 66.12 2.46 68.57 3.68 68.56 3.69 67.34 7.35 67.34"/><polygon class="cls-3" points="41.66 62.45 42.86 62.45 42.84 63.69 44.05 63.68 44.08 60 42.85 59.99 42.84 58.76 41.65 58.76 41.66 62.45"/><polygon class="cls-2" points="42.84 47.76 41.65 47.76 41.64 50.19 46.53 50.2 46.53 47.76 45.31 47.76 45.3 48.99 42.87 48.98 42.84 47.76"/><polygon class="cls-3" points="37.96 31.84 36.74 31.83 36.74 30.62 37.96 30.62 37.95 29.39 35.5 29.38 35.52 33.06 37.95 33.07 37.96 31.84"/><polygon class="cls-3" points="61.23 61.23 61.23 64.9 64.91 64.91 64.91 63.68 62.48 63.68 62.45 61.23 61.23 61.23"/><polygon class="cls-2" points="22.04 55.11 25.73 55.11 25.73 53.89 24.5 53.88 24.48 51.43 23.27 51.42 23.27 53.88 22.04 53.88 22.04 55.11"/><polygon class="cls-2" points="58.76 45.31 58.77 46.51 60 46.54 59.98 47.76 61.23 47.76 61.23 46.53 62.46 46.54 62.45 45.32 61.22 45.31 61.23 44.08 59.99 44.08 60.01 45.31 58.76 45.31"/><polygon class="cls-3" points="20.8 74.69 20.81 77.14 22.04 77.14 22.04 75.93 23.27 75.91 23.27 72.25 22.04 72.26 22.04 74.69 20.8 74.69"/><polygon class="cls-2" points="52.66 22.04 53.88 22.04 53.87 19.58 52.66 19.58 52.65 17.15 51.42 17.16 51.42 20.79 52.63 20.82 52.66 22.04"/><polygon class="cls-2" points="15.92 17.16 15.93 20.81 17.15 20.81 17.15 18.38 18.38 18.38 18.38 15.93 17.16 15.92 17.14 17.14 15.92 17.16"/><polygon class="cls-3" points="33.08 62.45 30.61 62.45 30.61 63.68 29.38 63.69 29.39 64.9 33.04 64.91 33.08 62.45"/><path class="cls-3" d="M13.46,17.16H12.24l0,1.22H11V17.16H9.8v1.23H11v1.21H9.84l0,1.23H11V19.59H13.4a10.81,10.81,0,0,0,.06-2.43"/><polygon class="cls-2" points="74.69 20.8 74.69 22.02 77.15 22.04 77.15 20.81 78.38 20.8 78.35 19.59 77.14 19.58 77.15 18.38 75.91 18.38 75.92 20.81 74.69 20.8"/><polygon class="cls-3" points="15.93 20.81 15.92 22.04 19.58 22.04 19.58 20.81 18.38 20.81 18.38 18.38 17.15 18.38 17.15 20.81 15.93 20.81"/><polygon class="cls-3" points="56.34 44.08 56.32 42.86 55.11 42.85 55.12 41.65 52.64 41.65 52.65 44.08 56.34 44.08"/><polygon class="cls-3" points="25.73 55.11 22.04 55.11 22.05 56.33 23.27 56.33 23.27 57.54 25.73 57.54 25.73 55.11"/><polygon class="cls-2" points="63.69 53.88 64.9 53.88 64.91 52.7 66.1 52.65 66.11 53.88 67.34 53.88 67.33 51.42 63.71 51.42 63.69 53.88"/><polygon class="cls-2" points="7.34 66.12 7.35 67.34 9.8 67.34 9.83 66.12 11.03 66.09 11.03 64.92 9.81 64.91 9.8 63.69 8.57 63.68 8.58 66.12 7.34 66.12"/><polygon class="cls-3" points="45.3 20.81 45.27 19.59 44.08 19.57 44.08 17.15 42.85 17.16 42.85 19.58 41.68 19.58 41.64 20.81 45.3 20.81"/><polygon class="cls-3" points="79.6 69.8 79.61 72.26 80.81 72.25 80.8 73.43 82.04 73.47 82.04 69.8 79.6 69.8"/><polygon class="cls-2" points="74.68 80.81 74.69 79.6 73.48 79.59 73.46 77.14 72.26 77.15 72.25 78.35 71.03 78.38 71.03 79.6 72.26 79.61 72.25 80.81 74.68 80.81"/><polygon class="cls-3" points="12.22 72.27 12.24 73.43 15.93 73.46 15.93 71.02 13.46 71.03 13.44 72.25 12.22 72.27"/><polygon class="cls-3" points="33.08 62.45 34.3 62.46 34.3 63.68 35.48 63.68 35.51 61.23 34.31 61.23 34.3 60.02 31.84 60 31.84 61.22 33.07 61.23 33.08 62.45"/><polygon class="cls-3" points="61.23 41.65 61.23 42.85 66.11 42.84 66.11 41.65 64.91 41.61 64.9 40.41 63.68 40.42 63.66 41.64 61.23 41.65"/><polygon class="cls-3" points="12.23 15.92 13.47 15.92 13.46 17.16 14.69 17.16 14.69 15.93 15.92 15.92 15.93 14.69 12.23 14.69 12.23 15.92"/><polygon class="cls-2" points="52.65 40.42 52.64 41.65 55.12 41.65 55.1 40.42 56.32 40.41 56.34 39.19 53.88 39.19 53.86 40.41 52.65 40.42"/><polygon class="cls-2" points="29.38 61.23 30.61 61.23 30.61 62.45 33.08 62.45 33.07 61.23 31.84 61.22 31.84 60 29.38 60 29.38 61.23"/><polygon class="cls-3" points="4.89 53.88 6.12 53.88 6.12 55.11 7.35 55.11 7.35 53.88 8.57 53.88 8.57 52.66 4.89 52.65 4.89 53.88"/><polygon class="cls-3" points="57.54 78.38 57.54 77.15 56.34 77.14 56.33 75.94 55.11 75.92 55.11 77.13 53.87 77.15 53.89 78.38 57.54 78.38"/><polygon class="cls-2" points="58.76 29.39 61.22 29.39 61.23 30.61 62.45 30.61 62.46 28.16 58.78 28.16 58.76 29.39"/><polygon class="cls-3" points="35.49 28.16 36.73 28.16 36.73 25.74 37.94 25.72 37.96 24.5 35.5 24.5 35.49 28.16"/><polygon class="cls-2" points="13.47 61.23 13.46 63.69 14.68 63.68 14.7 62.46 15.92 62.45 15.91 60 14.7 60 14.7 61.22 13.47 61.23"/><polygon class="cls-3" points="15.92 29.38 13.46 29.38 13.47 30.61 12.24 30.62 12.24 31.82 14.69 31.84 14.7 30.62 15.93 30.61 15.92 29.38"/><polygon class="cls-2" points="53.88 4.89 53.87 7.35 55.11 7.35 55.11 6.12 56.34 6.12 56.34 3.69 55.11 3.69 55.11 4.89 53.88 4.89"/><polygon class="cls-3" points="51.42 75.91 52.65 75.92 52.66 74.7 53.88 74.69 53.88 73.46 52.65 73.45 52.65 72.25 51.42 72.28 51.42 75.91"/><polygon class="cls-3" points="46.54 55.11 47.76 55.11 47.76 53.88 48.98 53.89 48.98 52.66 47.76 52.65 47.74 51.43 46.54 51.43 46.54 55.11"/><rect class="cls-1" x="61.23" y="42.85" width="4.89" height="1.23"/><polygon class="cls-2" points="73.45 55.11 74.68 55.11 74.69 52.66 75.92 52.65 75.91 51.43 73.47 51.45 73.45 55.11"/><polygon class="cls-2" points="80.81 53.88 80.8 52.65 78.37 52.65 78.38 51.42 77.15 51.43 77.14 53.88 80.81 53.88"/><polygon class="cls-3" points="69.8 13.47 72.26 13.46 72.25 9.83 71.02 9.8 71.03 12.22 69.83 12.24 69.8 13.47"/><polygon class="cls-3" points="17.16 78.37 15.93 78.37 15.92 82.03 18.38 82.03 18.37 80.82 17.15 80.81 17.15 80.7 17.16 78.37"/><polygon class="cls-3" points="74.69 62.46 74.69 64.9 75.91 64.91 75.92 63.69 77.13 63.68 77.14 61.23 75.92 61.23 75.91 62.45 74.69 62.46"/><polygon class="cls-3" points="52.64 41.65 52.65 40.42 51.43 40.4 51.41 39.19 48.99 39.19 49.01 40.41 50.19 40.41 50.21 41.64 52.64 41.65"/><polygon class="cls-3" points="71.03 7.35 71.03 6.12 69.8 6.12 69.79 4.89 68.6 4.89 68.57 6.12 67.36 6.13 67.34 7.34 71.03 7.35"/><polygon class="cls-3" points="53.88 29.38 55.1 29.39 55.11 30.61 56.33 30.59 56.34 26.96 55.11 26.95 55.11 28.16 53.88 28.16 53.88 29.38"/><polygon class="cls-2" points="35.51 37.96 35.5 39.17 39.18 39.19 39.19 37.96 37.96 37.95 37.95 36.73 36.73 36.73 36.73 37.96 35.51 37.96"/><polygon class="cls-2" points="66.11 47.77 71.01 47.76 71.03 46.55 66.12 46.53 66.11 47.77"/><polygon class="cls-3" points="19.59 20.81 20.81 20.81 20.82 19.6 23.26 19.58 23.27 18.38 19.59 18.38 19.59 20.81"/><polygon class="cls-3" points="33.07 4.89 34.3 4.88 34.3 3.68 36.7 3.69 36.74 2.46 33.06 2.46 33.07 4.89"/><polygon class="cls-2" points="40.41 36.73 41.63 36.74 41.64 39.19 42.85 39.19 42.84 35.5 40.42 35.51 40.41 36.73"/><polygon class="cls-2" points="18.38 35.5 19.59 35.51 19.59 34.31 20.81 34.29 20.8 33.07 17.16 33.07 17.16 34.3 18.38 34.31 18.38 35.5"/><polygon class="cls-2" points="48.99 20.78 47.79 20.82 47.75 21.29 47.76 21.7 47.76 22.04 50.19 22.04 50.2 18.38 48.99 18.38 48.99 20.78"/><polygon class="cls-3" points="6.11 18.38 4.9 18.36 4.89 17.16 2.46 17.15 2.47 18.38 3.69 18.39 3.69 19.59 6.12 19.59 6.11 18.38"/><polygon class="cls-2" points="13.46 66.11 14.67 66.12 14.7 67.33 15.92 67.34 15.93 66.12 17.16 66.12 17.15 64.93 13.46 64.92 13.46 66.11"/><polygon class="cls-2" points="35.5 18.38 35.5 15.93 33.07 15.93 33.1 18.38 35.5 18.38"/><polygon class="cls-3" points="12.24 79.58 13.44 79.6 13.47 74.7 12.25 74.7 12.24 79.58"/><polygon class="cls-2" points="13.46 71.03 15.93 71.02 15.93 69.8 14.7 69.79 14.68 68.57 13.46 68.57 13.46 71.03"/><polygon class="cls-3" points="52.66 31.84 52.65 30.62 53.88 30.62 53.88 29.38 51.41 29.38 51.43 31.83 52.66 31.84"/><polygon class="cls-2" points="14.69 52.66 14.7 51.43 15.92 51.42 15.9 50.2 13.46 50.18 13.46 52.65 14.69 52.66"/><polygon class="cls-2" points="63.69 7.35 63.69 6.12 64.91 6.12 64.9 4.9 62.46 4.89 62.45 7.35 63.69 7.35"/><polygon class="cls-2" points="53.88 68.57 53.88 69.8 56.33 69.8 56.34 67.34 55.11 67.34 55.11 68.57 53.88 68.57"/><polygon class="cls-2" points="77.14 31.84 77.14 30.61 75.92 30.61 75.91 29.39 74.69 29.38 74.7 31.84 77.14 31.84"/><polygon class="cls-2" points="77.14 71.03 77.14 69.8 78.38 69.8 78.37 68.57 75.92 68.57 75.92 71.02 77.14 71.03"/><polygon class="cls-2" points="8.58 37.96 6.12 37.96 6.12 40.41 7.33 40.42 7.35 39.19 8.57 39.19 8.58 37.96"/><polygon class="cls-2" points="75.91 47.76 78.37 47.76 78.38 46.54 77.14 46.53 77.14 45.31 75.92 45.31 75.91 47.76"/><polygon class="cls-3" points="6.12 71.03 7.35 71.03 7.35 68.57 4.9 68.58 4.89 69.77 6.13 69.8 6.12 71.03"/><polygon class="cls-2" points="20.81 77.14 20.82 78.35 23.27 78.38 23.27 75.91 22.04 75.93 22.04 77.14 20.81 77.14"/><polygon class="cls-3" points="15.93 20.81 15.92 17.16 14.69 17.16 14.7 20.8 15.93 20.81"/><polygon class="cls-3" points="25.72 26.65 25.75 26.95 29.35 26.95 29.39 25.73 29.05 25.72 25.72 25.72 25.72 26.65"/><polygon class="cls-2" points="20.8 11.04 22.01 11.03 22.04 7.35 20.81 7.35 20.8 11.04"/><polygon class="cls-2" points="8.58 48.99 12.22 48.99 12.24 47.76 8.58 47.76 8.58 48.99"/><polygon class="cls-3" points="47.77 79.61 46.53 79.6 46.54 80.8 45.34 80.81 45.3 82.03 47.77 82.03 47.77 79.61"/><polygon class="cls-3" points="59.99 79.6 60.01 80.81 61.23 80.81 61.23 82.04 63.69 82.03 63.67 80.82 61.22 80.81 61.23 79.6 59.99 79.6"/><polygon class="cls-2" points="74.69 29.38 74.66 28.16 71.03 28.15 71.03 29.39 74.69 29.38"/><polygon class="cls-2" points="62.46 33.07 63.69 33.08 63.69 34.3 64.89 34.29 64.91 31.87 62.46 31.84 62.46 33.07"/><polygon class="cls-3" points="71.03 6.12 72.26 6.11 72.25 3.69 71.03 3.68 71.03 2.48 69.8 2.45 69.81 3.69 71.03 3.69 71.03 6.12"/><polygon class="cls-3" points="20.8 61.23 20.8 60 18.38 59.99 18.38 62.45 19.57 62.45 19.59 61.25 20.8 61.23"/><polygon class="cls-3" points="56.34 14.69 56.33 13.48 52.66 13.47 52.65 14.69 56.34 14.69"/><polygon class="cls-3" points="28.16 4.89 26.97 4.89 26.95 6.12 29.39 6.12 29.39 3.68 28.16 3.69 28.16 4.89"/><polygon class="cls-2" points="7.35 46.53 11.03 46.53 11.03 45.33 7.36 45.31 7.35 46.53"/><polygon class="cls-3" points="33.08 14.69 33.07 15.93 35.5 15.93 35.48 13.47 34.31 13.46 34.3 14.69 33.08 14.69"/><path class="cls-2" d="M63.68,58.76h2.44V57.54H65a3.49,3.49,0,0,1-.07-1.17l-1.23,0Z"/><polygon class="cls-3" points="11.04 58.76 12.24 58.77 12.24 56.34 9.81 56.33 9.8 57.54 11.01 57.55 11.04 58.76"/><rect x="42.84" y="52.65" width="1.24" height="2.46"/><polygon class="cls-2" points="71.03 33.08 71.03 31.84 68.56 31.84 68.58 33.06 71.03 33.08"/><rect class="cls-1" x="51.42" y="61.23" width="1.23" height="2.46"/><polygon class="cls-2" points="20.8 33.07 22.02 33.07 22.04 30.61 20.8 30.61 20.8 33.07"/><polygon class="cls-3" points="47.77 79.61 49 79.61 48.99 77.16 47.77 77.14 47.77 79.61"/><rect class="cls-1" x="27.54" y="36.12" width="2.46" height="1.23" transform="translate(-8.01 65.43) rotate(-89.89)"/><polygon class="cls-3" points="78.38 48.99 78.37 47.76 75.91 47.76 75.92 48.99 78.38 48.99"/><polygon class="cls-2" points="22.04 72.26 23.27 72.25 23.27 69.8 22.04 69.8 22.04 72.26"/><polygon class="cls-3" points="61.23 30.61 61.22 29.39 58.76 29.39 58.77 30.61 61.23 30.61"/><polygon class="cls-2" points="60 72.24 61.23 72.25 61.23 69.8 59.99 69.8 60 72.24"/><polygon class="cls-2" points="52.66 22.04 50.21 22.04 50.2 23.27 52.65 23.27 52.66 22.04"/><polygon class="cls-2" points="46.54 11.03 46.53 8.58 45.31 8.58 45.31 11.03 46.54 11.03"/><polygon class="cls-3" points="35.51 61.23 37.96 61.23 37.95 59.99 35.51 60 35.51 61.23"/><polygon class="cls-3" points="7.35 57.57 8.58 57.54 8.57 55.11 7.35 55.11 7.35 57.57"/><polygon class="cls-3" points="29.38 12.23 30.61 12.24 30.61 9.8 29.38 9.8 29.38 12.23"/><rect class="cls-1" x="20.21" y="72.86" width="2.43" height="1.24" transform="translate(-52.12 94.67) rotate(-89.82)"/><polygon class="cls-2" points="40.41 47.76 41.65 47.76 41.64 45.33 40.43 45.3 40.41 47.76"/><polygon class="cls-2" points="68.57 44.08 68.57 45.3 71.03 45.3 71.02 44.09 68.57 44.08"/><polygon class="cls-3" points="51.42 46.54 53.88 46.53 53.88 45.31 51.44 45.31 51.42 46.54"/><polygon class="cls-3" points="6.12 37.96 8.58 37.96 8.57 36.74 6.13 36.73 6.12 37.96"/><polygon class="cls-3" points="51.42 12.23 52.65 12.24 52.65 9.8 51.42 9.81 51.42 12.23"/><polygon class="cls-3" points="3.7 36.73 3.69 34.34 2.46 34.29 2.46 36.73 3.7 36.73"/><polygon class="cls-3" points="29.39 3.68 31.85 3.68 31.84 2.46 29.38 2.46 29.39 3.68"/><polygon class="cls-3" points="67.34 17.15 67.34 14.69 66.12 14.69 66.12 17.13 67.34 17.15"/><polygon class="cls-2" points="18.38 58.76 18.38 56.34 17.16 56.34 17.15 58.77 18.38 58.76"/><polygon class="cls-2" points="13.46 68.57 13.46 66.11 12.24 66.13 12.23 68.56 13.46 68.57"/><polygon class="cls-3" points="74.69 20.8 75.92 20.81 75.91 18.38 74.68 18.38 74.69 20.8"/><polygon class="cls-3" points="12.22 72.27 12.22 71.03 9.8 71.03 9.81 72.26 12.22 72.27"/><polygon class="cls-2" points="13.46 29.38 15.92 29.38 15.91 28.16 13.49 28.16 13.46 29.38"/><rect x="41.65" y="23.27" width="2.43" height="1.23"/><polygon class="cls-3" points="79.62 22.04 82.03 22.04 82.03 20.81 79.6 20.8 79.62 22.04"/><polygon class="cls-3" points="46.54 36.73 46.53 34.31 45.31 34.3 45.31 36.73 46.54 36.73"/><polygon class="cls-3" points="23.27 61.23 20.8 61.23 20.82 62.44 23.26 62.45 23.27 61.23"/><polygon class="cls-3" points="67.35 63.67 69.78 63.68 69.8 62.46 67.34 62.45 67.35 63.67"/><polygon class="cls-3" points="22.04 3.67 24.5 3.68 24.5 2.47 22.03 2.46 22.04 3.67"/><polygon class="cls-3" points="46.54 56.33 46.54 55.11 44.07 55.11 44.08 56.32 46.54 56.33"/><polygon class="cls-3" points="67.34 68.56 69.81 68.57 69.79 67.35 67.36 67.35 67.34 68.56"/><polygon class="cls-3" points="78.37 47.76 80.79 47.76 80.81 46.53 78.38 46.54 78.37 47.76"/><polygon class="cls-3" points="35.51 72.24 37.93 72.26 37.96 71.03 35.49 71.03 35.51 72.24"/><polygon class="cls-2" points="66.12 14.69 67.34 14.69 67.34 12.24 66.13 12.24 66.12 14.69"/><polygon class="cls-3" points="3.69 14.69 3.68 12.25 2.49 12.24 2.45 14.7 3.69 14.69"/><polygon class="cls-3" points="12.23 82.01 14.7 82.04 14.68 80.8 12.25 80.81 12.23 82.01"/><polygon class="cls-2" points="31.84 44.08 33.07 44.07 33.07 41.67 31.84 41.64 31.84 44.08"/><polygon class="cls-2" points="42.84 47.76 44.06 47.76 44.08 45.31 42.86 45.31 42.84 47.76"/><polygon class="cls-2" points="78.38 51.42 80.81 51.43 80.81 50.2 78.38 50.2 78.38 51.42"/><polygon class="cls-3" points="42.84 58.76 45.3 58.76 45.3 57.54 42.87 57.54 42.84 58.76"/><polygon class="cls-2" points="52.65 63.69 52.65 64.89 55.11 64.91 55.11 63.7 52.65 63.69"/><polygon class="cls-2" points="45.3 75.91 46.53 75.92 46.53 73.46 45.33 73.46 45.3 75.91"/><polygon class="cls-2" points="15.92 25.73 13.47 25.73 13.47 26.94 15.89 26.95 15.92 25.73"/><polygon class="cls-2" points="72.26 69.8 74.68 69.8 74.69 68.57 72.27 68.57 72.26 69.8"/><polygon class="cls-2" points="78.38 48.99 80.79 48.99 80.79 47.76 78.37 47.76 78.38 48.99"/><polygon class="cls-3" points="8.57 23.27 11.03 23.26 11.03 22.07 8.59 22.04 8.57 23.27"/><rect x="76.55" y="64.28" width="1.2" height="2.46" transform="translate(11.47 142.53) rotate(-89.88)"/><polygon class="cls-3" points="35.5 29.38 35.49 28.16 33.09 28.16 33.06 29.39 35.5 29.38"/><polygon class="cls-3" points="31.84 58.76 34.3 58.77 34.29 57.56 31.87 57.54 31.84 58.76"/><rect x="24.5" y="3.69" width="2.45" height="1.21"/><polygon class="cls-3" points="78.38 30.61 79.6 30.61 79.6 28.18 78.4 28.16 78.38 30.61"/><path class="cls-3" d="M65,66.12h2.38l0-1.21H64.91a6.07,6.07,0,0,0,0,1.21"/><polygon class="cls-3" points="6.12 71.03 3.69 71.03 3.7 72.26 6.09 72.25 6.12 71.03"/><polygon class="cls-2" points="29.38 30.61 28.16 30.62 28.16 33.05 29.36 33.07 29.38 30.61"/><polygon class="cls-3" points="79.61 24.5 79.6 26.95 80.81 26.95 80.81 24.5 79.61 24.5"/><polygon class="cls-3" points="71.03 66.11 71.03 64.93 68.57 64.91 68.57 66.12 71.03 66.11"/><polygon class="cls-3" points="18.38 48.99 18.38 51.43 19.59 51.43 19.58 48.99 18.38 48.99"/><polygon class="cls-3" points="35.5 36.73 35.51 34.3 34.3 34.3 34.3 36.73 35.5 36.73"/><polygon class="cls-3" points="40.42 35.51 42.84 35.5 42.85 34.3 40.41 34.3 40.42 35.51"/><polygon class="cls-2" points="42.84 55.11 42.84 52.65 41.65 52.65 41.66 55.11 42.84 55.11"/><rect class="cls-1" x="62.45" y="12.23" width="1.24" height="1.24"/><polygon class="cls-2" points="78.37 22.04 79.62 22.04 79.6 20.8 78.38 20.8 78.37 22.04"/><rect class="cls-1" x="31.84" y="14.69" width="1.24" height="1.23" transform="translate(16.97 47.68) rotate(-89.68)"/><polygon class="cls-3" points="58.76 45.31 60.01 45.31 59.99 44.08 58.76 44.08 58.76 45.31"/><polygon class="cls-3" points="40.41 15.92 41.65 15.93 41.65 14.69 40.42 14.7 40.41 15.92"/><polygon class="cls-2" points="12.24 17.16 13.46 17.16 13.47 15.92 12.23 15.92 12.24 17.16"/><polygon class="cls-2" points="17.16 48.99 17.16 47.76 15.92 47.76 15.93 48.99 17.16 48.99"/><polygon class="cls-3" points="63.68 67.34 64.91 67.38 64.91 66.12 63.68 66.13 63.68 67.34"/><polygon class="cls-3" points="4.89 17.16 6.12 17.16 6.12 15.92 4.89 15.93 4.89 17.16"/><polygon class="cls-3" points="77.15 22.04 78.37 22.04 78.38 20.8 77.15 20.81 77.15 22.04"/><rect class="cls-1" x="67.34" y="42.85" width="1.23" height="1.23"/><polygon class="cls-3" points="11.04 51.42 9.81 51.42 9.8 52.65 11.03 52.64 11.04 51.42"/><rect x="61.23" y="53.88" width="1.23" height="1.23"/><polygon class="cls-2" points="33.08 39.19 33.07 37.96 31.85 37.96 31.84 39.19 33.08 39.19"/><polygon class="cls-2" points="41.65 17.16 41.65 15.93 40.41 15.92 40.42 17.15 41.65 17.16"/><polygon class="cls-3" points="31.84 78.38 31.84 77.14 30.61 77.14 30.62 78.37 31.84 78.38"/><polygon class="cls-2" points="47.76 55.11 48.99 55.11 48.98 53.89 47.76 53.88 47.76 55.11"/><polygon class="cls-3" points="14.69 52.66 15.93 52.65 15.92 51.42 14.7 51.43 14.69 52.66"/><polygon class="cls-2" points="61.23 17.16 62.45 17.16 62.45 15.92 61.23 15.93 61.23 17.16"/><polygon class="cls-2" points="14.69 17.16 15.92 17.16 15.92 15.92 14.69 15.93 14.69 17.16"/><polygon class="cls-2" points="73.46 47.77 74.69 47.76 74.69 46.54 73.46 46.54 73.46 47.77"/><polygon class="cls-3" points="34.31 22.04 33.08 22.04 33.07 23.27 34.3 23.26 34.31 22.04"/><polygon class="cls-2" points="61.23 22.05 62.45 22.04 62.46 20.8 61.24 20.81 61.23 22.05"/><polygon class="cls-3" points="61.22 48.99 61.23 47.76 59.98 47.76 60.01 48.98 61.22 48.99"/><polygon class="cls-2" points="51.41 52.65 52.65 52.65 52.63 51.42 51.42 51.42 51.41 52.65"/><rect class="cls-1" x="33.07" y="13.46" width="1.23" height="1.22" transform="translate(-0.04 0.09) rotate(-0.15)"/><rect x="80.81" y="35.51" width="1.23" height="1.23" transform="translate(-0.07 0.15) rotate(-0.11)"/><polygon class="cls-3" points="77.14 31.84 78.36 31.84 78.38 30.61 77.14 30.61 77.14 31.84"/><polygon class="cls-3" points="66.12 44.07 67.34 44.08 67.33 42.85 66.11 42.84 66.12 44.07"/><polygon class="cls-3" points="35.51 37.96 36.73 37.96 36.73 36.73 35.5 36.73 35.51 37.96"/><rect class="cls-1" x="30.61" y="75.92" width="1.23" height="1.23"/><polygon class="cls-3" points="11.03 15.92 11.03 14.69 9.81 14.7 9.8 15.92 11.03 15.92"/><polygon class="cls-3" points="66.12 41.65 67.34 41.64 67.34 40.41 66.12 40.41 66.12 41.65"/><polygon class="cls-3" points="55.11 75.92 55.12 74.69 53.88 74.69 53.88 75.92 55.11 75.92"/><polygon class="cls-3" points="51.42 56.34 52.65 56.34 52.65 55.11 51.43 55.11 51.42 56.34"/><polygon class="cls-2" points="17.16 6.12 15.94 6.12 15.92 7.35 17.15 7.34 17.16 6.12"/><polygon class="cls-3" points="59.99 44.08 61.23 44.08 61.23 42.85 60.01 42.86 59.99 44.08"/><rect x="53.88" y="25.72" width="1.22" height="1.23" transform="translate(27.89 80.7) rotate(-89.72)"/><polygon class="cls-3" points="77.14 71.03 78.36 71.02 78.38 69.8 77.14 69.8 77.14 71.03"/><polygon class="cls-2" points="17.16 6.12 18.38 6.11 18.38 4.88 17.16 4.89 17.16 6.12"/><polygon class="cls-2" points="23.27 69.8 24.49 69.8 24.5 68.57 23.27 68.57 23.27 69.8"/><rect class="cls-1" x="67.34" y="55.11" width="1.23" height="1.22" transform="translate(-0.19 0.23) rotate(-0.2)"/><polygon class="cls-2" points="68.57 55.11 69.79 55.11 69.8 53.89 68.56 53.88 68.57 55.11"/><polygon class="cls-3" points="3.69 71.03 3.69 69.83 2.45 69.79 2.46 71.03 3.69 71.03"/><polygon class="cls-3" points="78.37 82.04 79.6 82.03 79.6 80.81 78.37 80.81 78.37 82.04"/><polygon class="cls-2" points="52.65 33.07 52.65 34.29 53.88 34.3 53.88 33.07 52.65 33.07"/><polygon class="cls-3" points="2.46 20.81 3.68 20.81 3.69 19.59 2.45 19.59 2.46 20.81"/><polygon class="cls-2" points="30.61 35.51 30.61 36.73 31.85 36.73 31.83 35.51 30.61 35.51"/><polygon class="cls-3" points="17.16 48.99 18.38 48.99 18.38 47.77 17.16 47.76 17.16 48.99"/><polygon class="cls-2" points="53.88 30.62 55.11 30.61 55.1 29.39 53.88 29.38 53.88 30.62"/><polygon class="cls-3" points="15.92 17.16 17.14 17.14 17.16 15.92 15.92 15.92 15.92 17.16"/><polygon class="cls-2" points="52.65 40.42 52.65 39.18 51.41 39.19 51.43 40.4 52.65 40.42"/><polygon class="cls-3" points="63.69 7.35 64.91 7.34 64.91 6.12 63.69 6.12 63.69 7.35"/><polygon class="cls-2" points="53.88 74.69 55.12 74.69 55.1 73.47 53.88 73.46 53.88 74.69"/><polygon class="cls-3" points="11.04 33.08 11.03 31.87 9.81 31.84 9.81 33.07 11.04 33.08"/><polygon class="cls-3" points="15.93 78.37 15.92 77.15 14.69 77.14 14.7 78.37 15.93 78.37"/><polygon class="cls-3" points="58.76 36.73 58.77 35.51 57.54 35.51 57.54 36.73 58.76 36.73"/><polygon class="cls-3" points="11.04 58.76 9.83 58.77 9.8 60 11.04 59.99 11.04 58.76"/><polygon class="cls-3" points="63.68 11.02 64.91 11.03 64.91 9.8 63.68 9.8 63.68 11.02"/><polygon class="cls-2" points="72.26 55.11 72.25 53.91 71.02 53.88 71.03 55.11 72.26 55.11"/><polygon class="cls-2" points="15.92 15.92 17.16 15.92 17.14 14.7 15.93 14.69 15.92 15.92"/><rect x="46.54" y="36.73" width="1.23" height="1.22"/><polygon class="cls-2" points="17.16 47.76 18.38 47.77 18.37 46.54 17.15 46.53 17.16 47.76"/><polygon class="cls-2" points="66.11 79.61 67.31 79.6 67.35 78.37 66.12 78.38 66.11 79.61"/><polygon class="cls-2" points="67.34 31.84 68.56 31.84 68.57 30.62 67.34 30.62 67.34 31.84"/><polygon class="cls-3" points="33.08 55.11 33.07 53.9 31.84 53.88 31.84 55.11 33.08 55.11"/><polygon class="cls-2" points="78.37 22.04 77.15 22.04 77.14 23.27 78.37 23.26 78.37 22.04"/><polygon class="cls-2" points="66.11 72.27 67.31 72.25 67.35 71.03 66.11 71.03 66.11 72.27"/><rect x="30.61" y="74.7" width="1.23" height="1.22"/><polygon class="cls-2" points="29.38 9.8 30.61 9.8 30.61 8.57 29.39 8.59 29.38 9.8"/><polygon class="cls-2" points="12.22 72.27 13.44 72.25 13.46 71.03 12.22 71.03 12.22 72.27"/><polygon class="cls-2" points="62.46 55.11 63.67 55.1 63.69 53.88 62.46 53.88 62.46 55.11"/><polygon class="cls-2" points="6.12 17.16 7.33 17.15 7.35 15.92 6.12 15.92 6.12 17.16"/><polygon class="cls-3" points="77.14 30.61 77.14 29.39 75.91 29.39 75.92 30.61 77.14 30.61"/><polygon class="cls-3" points="17.16 53.88 17.14 52.66 15.93 52.65 15.92 53.88 17.16 53.88"/><rect class="cls-1" x="46.54" y="55.11" width="1.23" height="1.22"/><polygon class="cls-3" points="34.31 52.65 34.29 51.44 33.08 51.42 33.07 52.65 34.31 52.65"/><polygon class="cls-3" points="55.11 7.35 56.33 7.34 56.34 6.12 55.11 6.12 55.11 7.35"/><polygon class="cls-3" points="14.69 11.03 15.89 11.03 15.93 9.8 14.69 9.8 14.69 11.03"/><polygon class="cls-2" points="36.73 11.04 36.74 9.8 35.5 9.81 35.51 11.02 36.73 11.04"/><polygon class="cls-2" points="33.08 22.04 34.31 22.04 34.29 20.82 33.08 20.8 33.08 22.04"/><polygon class="cls-2" points="58.76 55.11 57.55 55.11 57.54 56.33 58.77 56.33 58.76 55.11"/><polygon class="cls-2" points="67.34 22.04 68.58 22.04 68.56 20.81 67.36 20.82 67.34 22.04"/><polygon class="cls-2" points="68.57 11.03 68.57 9.8 67.34 9.81 67.35 11.02 68.57 11.03"/><polygon class="cls-2" points="30.61 75.92 30.61 74.69 29.38 74.69 29.39 75.9 30.61 75.92"/><polygon class="cls-2" points="56.34 22.04 56.34 20.8 55.13 20.81 55.1 22.04 56.34 22.04"/><polygon class="cls-3" points="30.61 62.45 30.61 61.23 29.38 61.23 29.39 62.45 30.61 62.45"/><polygon class="cls-3" points="3.7 47.76 3.69 46.56 2.46 46.53 2.46 47.76 3.7 47.76"/><polygon class="cls-3" points="80.81 24.5 82.02 24.49 82.04 23.27 80.81 23.27 80.81 24.5"/><polygon class="cls-2" points="30.61 74.69 31.84 74.7 31.83 73.47 30.64 73.46 30.61 74.69"/><polygon class="cls-2" points="23.27 23.26 23.26 22.04 22.03 22.04 22.04 23.26 23.27 23.26"/><polygon class="cls-2" points="6.12 55.11 6.12 53.88 4.89 53.88 4.89 55.09 6.12 55.11"/><polygon class="cls-2" points="52.66 31.84 53.88 31.84 53.88 30.62 52.65 30.62 52.66 31.84"/><polygon class="cls-2" points="37.96 41.64 37.96 40.41 36.73 40.42 36.74 41.63 37.96 41.64"/><polygon class="cls-3" points="61.23 47.76 62.44 47.76 62.46 46.54 61.23 46.53 61.23 47.76"/><polygon class="cls-3" points="30.61 46.54 30.61 45.31 29.39 45.31 29.39 46.52 30.61 46.54"/><polygon class="cls-2" points="62.46 20.8 63.68 20.81 63.68 19.59 62.46 19.59 62.46 20.8"/><polygon class="cls-3" points="31.84 82.04 33.08 82.03 33.07 80.84 31.84 80.81 31.84 82.04"/><polygon class="cls-2" points="9.8 63.69 11.02 63.67 11.03 62.48 9.8 62.45 9.8 63.69"/><polygon class="cls-3" points="69.8 14.69 69.8 15.93 71.02 15.91 71.03 14.71 69.8 14.69"/><polygon class="cls-2" points="67.34 44.08 66.12 44.07 66.12 45.28 67.34 45.31 67.34 44.08"/><polygon class="cls-2" points="68.57 30.62 69.8 30.61 69.8 29.39 68.59 29.39 68.57 30.62"/><polygon class="cls-3" points="39.19 13.47 37.98 13.47 37.96 14.69 39.18 14.69 39.19 13.47"/><polygon class="cls-3" points="23.27 58.76 23.27 57.54 22.04 57.55 22.04 58.76 23.27 58.76"/><polygon class="cls-2" points="9.8 67.34 9.8 68.57 11.03 68.56 11.03 67.37 9.8 67.34"/><polygon class="cls-2" points="23.27 68.57 23.26 67.34 22.05 67.35 22.04 68.56 23.27 68.57"/><polygon class="cls-2" points="14.69 11.03 14.69 9.8 13.46 9.82 13.49 11.03 14.69 11.03"/><polygon class="cls-3" points="7.34 20.8 8.58 20.81 8.57 19.59 7.37 19.58 7.34 20.8"/><polygon class="cls-2" points="56.34 9.81 55.11 9.8 55.12 11.03 56.31 11.03 56.34 9.81"/><polygon class="cls-2" points="41.65 52.65 41.64 51.44 40.44 51.42 40.41 52.65 41.65 52.65"/><polygon class="cls-2" points="51.42 17.16 51.42 15.93 50.19 15.93 50.2 17.12 51.42 17.16"/><polygon class="cls-2" points="46.54 40.41 45.3 40.42 45.31 41.64 46.51 41.64 46.54 40.41"/><polygon class="cls-3" points="62.45 17.16 63.67 17.14 63.68 15.95 62.45 15.92 62.45 17.16"/><polygon class="cls-3" points="78.38 69.8 79.6 69.8 79.6 68.6 78.37 68.57 78.38 69.8"/><polygon class="cls-2" points="33.07 46.54 34.3 46.52 34.3 45.33 33.07 45.3 33.07 46.54"/><polygon class="cls-2" points="9.81 51.42 11.04 51.42 11.01 50.2 9.81 50.19 9.81 51.42"/><polygon class="cls-2" points="39.19 37.96 40.42 37.95 40.41 36.73 39.2 36.73 39.19 37.96"/><polygon class="cls-2" points="13.46 64.92 13.46 63.69 12.23 63.69 12.24 64.89 13.46 64.92"/><polygon class="cls-3" points="47.76 56.34 48.98 56.32 48.99 55.11 47.76 55.11 47.76 56.34"/><polygon class="cls-2" points="31.84 78.38 33.05 78.36 33.07 77.16 31.84 77.14 31.84 78.38"/><polygon class="cls-2" points="14.7 8.58 14.69 7.36 13.47 7.35 13.47 8.56 14.7 8.58"/><polygon class="cls-2" points="51.42 37.96 52.65 37.96 52.65 36.73 51.44 36.74 51.42 37.96"/><polygon class="cls-2" points="51.41 63.69 50.2 63.68 50.2 64.9 51.42 64.91 51.41 63.69"/><polygon class="cls-2" points="78.38 41.65 77.14 41.64 77.14 42.85 78.38 42.84 78.38 41.65"/><polygon class="cls-3" points="62.46 18.38 62.45 17.16 61.23 17.16 61.25 18.38 62.46 18.38"/><polygon class="cls-3" points="7.35 71.03 7.36 72.25 8.55 72.25 8.58 71.03 7.35 71.03"/><polygon class="cls-3" points="74.68 18.38 74.69 17.15 73.46 17.16 73.47 18.36 74.68 18.38"/><polygon class="cls-2" points="6.11 18.38 6.12 17.16 4.89 17.16 4.9 18.36 6.11 18.38"/><polygon class="cls-3" points="62.45 77.14 62.46 78.37 63.67 78.36 63.68 77.16 62.45 77.14"/><polygon class="cls-3" points="51.41 52.65 51.42 51.42 50.2 51.44 50.19 52.64 51.41 52.65"/><polygon class="cls-2" points="37.96 31.84 37.96 30.62 36.74 30.62 36.74 31.83 37.96 31.84"/><polygon class="cls-3" points="26.95 40.42 25.73 40.41 25.73 41.64 26.93 41.64 26.95 40.42"/><polygon class="cls-3" points="44.08 24.5 44.08 25.71 45.28 25.72 45.31 24.5 44.08 24.5"/><polygon class="cls-3" points="71.03 37.96 72.25 37.96 72.24 36.73 71.05 36.73 71.03 37.96"/><polygon class="cls-2" points="13.47 46.54 13.46 45.31 12.24 45.31 12.24 46.51 13.47 46.54"/><polygon class="cls-3" points="80.81 31.82 82.03 31.84 82.04 30.61 80.81 30.62 80.81 31.82"/><polygon class="cls-3" points="80.81 62.43 82.02 62.46 82.04 61.23 80.8 61.23 80.81 62.43"/><polygon class="cls-3" points="71.03 33.08 72.24 33.06 72.26 31.87 71.03 31.84 71.03 33.08"/><polygon class="cls-3" points="64.91 82.04 66.12 82.04 66.12 80.81 64.91 80.81 64.91 82.04"/><polygon class="cls-2" points="3.69 26.95 4.04 26.95 4.29 26.95 4.89 26.95 4.89 25.72 3.69 25.72 3.69 26.95"/><polygon class="cls-2" points="17.16 66.12 17.15 67.34 18.38 67.33 18.37 66.14 17.16 66.12"/><polygon class="cls-3" points="80.8 14.67 82.04 14.7 82.03 13.47 80.82 13.47 80.8 14.67"/><polygon class="cls-3" points="39.19 61.22 40.42 61.22 40.41 60.02 39.2 60 39.19 61.22"/><rect x="26.95" y="2.46" width="1.21" height="1.23"/><polygon class="cls-3" points="67.33 42.85 68.57 42.85 68.57 41.64 67.34 41.65 67.33 42.85"/><polygon class="cls-2" points="59.99 22.04 59.99 20.81 58.78 20.82 58.77 22.02 59.99 22.04"/><polygon class="cls-3" points="28.16 23.27 28.16 24.47 29.37 24.5 29.39 23.27 28.16 23.27"/><rect x="45.3" y="3.69" width="1.23" height="1.2"/><polygon class="cls-3" points="29.38 12.23 28.17 12.24 28.15 13.45 29.38 13.47 29.38 12.23"/><polygon class="cls-3" points="74.69 14.69 73.47 14.7 73.46 15.89 74.69 15.93 74.69 14.69"/><polygon class="cls-3" points="73.46 74.66 74.69 74.69 74.68 73.46 73.47 73.47 73.46 74.66"/><polygon class="cls-2" points="58.76 45.31 58.76 44.08 57.54 44.07 57.54 45.27 58.76 45.31"/><polygon class="cls-3" points="24.5 11.03 25.71 11.03 25.73 9.82 24.5 9.8 24.5 11.03"/><polygon class="cls-3" points="71.03 7.35 71.03 8.58 72.25 8.57 72.25 7.37 71.03 7.35"/><polygon class="cls-2" points="33.08 11.03 34.28 11.03 34.3 9.83 33.07 9.8 33.08 11.03"/><rect x="11.03" y="15.92" width="1.2" height="1.23"/><polygon class="cls-3" points="80.81 68.54 82.03 68.58 82.03 67.34 80.82 67.35 80.81 68.54"/><polygon class="cls-3" points="35.51 53.89 35.5 52.65 34.31 52.65 34.3 53.88 35.51 53.89"/><polygon class="cls-3" points="28.16 23.27 28.16 22.04 26.96 22.04 26.95 23.27 28.16 23.27"/><polygon class="cls-2" points="14.69 46.54 13.47 46.54 13.47 47.74 14.68 47.76 14.69 46.54"/><polygon class="cls-3" points="74.69 47.76 73.46 47.77 73.47 48.97 74.66 48.99 74.69 47.76"/><polygon class="cls-3" points="78.38 64.92 79.58 64.9 79.61 63.71 78.37 63.68 78.38 64.92"/><polygon class="cls-3" points="50.19 44.05 51.43 44.08 51.41 42.85 50.21 42.85 50.19 44.05"/><polygon class="cls-3" points="35.51 53.89 35.51 55.09 36.71 55.11 36.74 53.88 35.51 53.89"/><polygon class="cls-3" points="4.89 15.93 4.89 14.69 3.69 14.69 3.69 15.92 4.89 15.93"/><polygon class="cls-2" points="37.96 42.85 39.19 42.85 39.19 41.65 37.96 41.64 37.96 42.85"/><polygon class="cls-2" points="41.65 15.93 42.85 15.93 42.84 14.7 41.65 14.69 41.65 15.93"/><polygon class="cls-3" points="64.91 40.41 66.11 40.41 66.12 39.19 64.91 39.19 64.91 40.41"/><polygon class="cls-2" points="33.08 39.19 33.07 40.42 34.29 40.41 34.3 39.21 33.08 39.19"/><polygon class="cls-3" points="78.38 61.23 78.37 62.45 79.59 62.44 79.6 61.25 78.38 61.23"/><polygon class="cls-2" points="17.16 4.89 17.15 3.7 15.92 3.69 15.92 4.89 17.16 4.89"/><polygon class="cls-3" points="80.8 29.36 82.04 29.39 82.03 28.16 80.82 28.16 80.8 29.36"/><polygon class="cls-2" points="6.12 50.17 6.6 50.2 7.01 50.2 7.35 50.19 7.35 48.99 7.01 48.99 6.12 49 6.12 50.17"/><polygon class="cls-2" points="53.88 4.89 53.88 3.69 52.65 3.69 52.65 4.88 53.88 4.89"/><polygon class="cls-3" points="42.85 82.01 44.08 82.04 44.07 80.81 42.87 80.81 42.85 82.01"/><rect class="cls-1" x="29.4" y="34.29" width="1.2" height="1.23" transform="translate(-5.07 64.71) rotate(-89.68)"/><polygon class="cls-2" points="42.84 63.69 42.86 62.45 41.66 62.45 41.65 63.68 42.84 63.69"/><rect x="48.99" y="53.88" width="1.2" height="1.23" transform="translate(-0.31 0.28) rotate(-0.32)"/><rect class="cls-1" x="11.02" y="14.71" width="1.23" height="1.2" transform="translate(-3.71 26.9) rotate(-89.84)"/><polygon class="cls-3" points="29.38 61.23 29.38 60 28.17 60.01 28.16 61.2 29.38 61.23"/><polygon class="cls-3" points="66.11 79.61 66.12 78.38 64.91 78.37 64.92 79.6 66.11 79.61"/><polygon class="cls-3" points="11.04 34.31 9.8 34.3 9.8 35.5 11.03 35.49 11.04 34.31"/><polygon class="cls-3" points="19.58 82 20.81 82.04 20.8 80.8 19.6 80.81 19.58 82"/><polygon class="cls-3" points="9.8 37.96 11.04 37.95 11.03 36.75 9.82 36.73 9.8 37.96"/><polygon class="cls-3" points="35.51 50.16 35.89 50.2 36.22 50.2 36.73 50.19 36.73 48.99 35.5 49 35.51 50.16"/><polygon class="cls-2" points="48.99 24.5 50.18 24.49 50.2 23.27 48.99 23.27 48.99 24.5"/><polygon class="cls-3" points="71.03 18.37 72.24 18.37 72.25 17.18 71.03 17.14 71.03 18.37"/><rect x="41.65" y="15.93" width="1.2" height="1.23"/><polygon class="cls-3" points="24.5 44.08 25.73 44.07 25.72 42.86 24.53 42.85 24.5 44.08"/><polygon class="cls-2" points="58.76 68.57 57.55 68.58 57.54 69.77 58.76 69.8 58.76 68.57"/><polygon class="cls-3" points="58.77 35.5 60 35.51 60 34.99 60 34.3 58.77 34.3 58.77 35.5"/><polygon class="cls-2" points="49 63.69 50.18 63.68 50.2 62.45 48.99 62.45 49 63.69"/><polygon class="cls-2" points="7.35 25.73 6.12 25.73 6.13 26.94 7.32 26.95 7.35 25.73"/><rect class="cls-1" x="64.9" y="19.6" width="1.22" height="1.2" transform="translate(44.94 85.6) rotate(-89.68)"/><polygon class="cls-3" points="36.73 6.12 36.72 4.89 35.52 4.9 35.5 6.1 36.73 6.12"/><polygon class="cls-2" points="56.34 20.8 57.53 20.81 57.54 19.59 56.33 19.59 56.34 20.8"/><polygon class="cls-3" points="80.8 58.73 82.04 58.77 82.02 57.54 80.83 57.55 80.8 58.73"/><polygon class="cls-2" points="20.8 11.04 19.58 11.03 19.59 12.24 20.81 12.24 20.8 11.04"/><polygon class="cls-2" points="13.46 50.18 13.47 48.99 12.24 48.99 12.24 50.2 13.46 50.18"/><polygon class="cls-2" points="56.34 47.76 57.53 47.76 57.54 46.53 56.33 46.53 56.34 47.76"/><polygon class="cls-3" points="33.08 55.11 33.07 56.34 34.28 56.33 34.3 55.14 33.08 55.11"/><polygon class="cls-3" points="9.8 42.85 11.04 42.84 11.03 41.67 9.8 41.64 9.8 42.85"/><polygon class="cls-3" points="73.46 42.82 74.69 42.86 74.69 41.64 73.46 41.65 73.46 42.82"/><path class="cls-3" d="M51.42,56.34H50.19l0,1.19,1.15,0a3.49,3.49,0,0,0,.06-1.21"/><polygon class="cls-3" points="26.95 40.42 28.14 40.41 28.15 39.19 26.95 39.19 26.95 40.42"/><path class="cls-3" d="M65,63.69h1.12l0-1.23h-1.2a4.21,4.21,0,0,0,0,1.23"/><polygon class="cls-2" points="66.11 53.88 64.92 53.88 64.91 55.11 66.1 55.11 66.11 53.88"/><polygon class="cls-3" points="11.03 14.69 12.23 14.69 12.23 13.47 11.04 13.46 11.03 14.69"/><polygon class="cls-3" points="13.46 22.03 13.46 20.81 12.25 20.82 12.24 22.01 13.46 22.03"/><polygon class="cls-2" points="58.77 73.44 60 73.47 60 72.26 58.76 72.26 58.77 73.44"/><polygon class="cls-2" points="40.42 4.89 40.41 3.71 39.19 3.68 39.19 4.89 40.42 4.89"/><polygon class="cls-3" points="62.45 12.23 63.69 12.23 63.68 11.04 62.46 11.04 62.45 12.23"/><polygon class="cls-2" points="67.34 56.34 66.11 56.34 66.12 57.53 67.34 57.54 67.34 56.34"/><polygon class="cls-3" points="57.54 44.07 58.76 44.08 58.73 42.85 57.55 42.87 57.54 44.07"/><polygon class="cls-3" points="41.64 74.69 42.85 74.69 42.84 73.46 41.67 73.46 41.64 74.69"/><polygon class="cls-3" points="41.64 42.85 42.85 42.85 42.85 41.64 41.64 41.64 41.64 42.85"/><polygon class="cls-3" points="41.65 11.03 42.82 11.03 42.85 9.8 41.64 9.8 41.65 11.03"/><path class="cls-3" d="M42.85,28.13l1.23,0A4.05,4.05,0,0,0,44,27H42.88Z"/><polygon class="cls-3" points="18.38 47.77 19.57 47.76 19.59 46.58 18.37 46.54 18.38 47.77"/><polygon class="cls-2" points="12.24 17.16 11.03 17.16 11.04 18.37 12.21 18.38 12.24 17.16"/><polygon class="cls-3" points="50.18 71.03 48.99 71.03 49 72.26 50.16 72.25 50.18 71.03"/></svg>