<svg xmlns="http://www.w3.org/2000/svg" width="36.86" height="36.86" viewBox="0 0 36.86 36.86">
  <g id="Group_12" data-name="Group 12" transform="translate(14493 4346)">
    <rect id="Rectangle_4" data-name="Rectangle 4" width="36.86" height="36.86" rx="8" transform="translate(-14493 -4346)" fill="#e8a4a7"/>
    <g id="Frame-8" transform="translate(-14486 -4338)">
      <path id="Path_37" data-name="Path 37" d="M2.723,3.382v21.36H25.071V3.382ZM23.566,23.235H4.227V14.813H23.564v8.422Zm0-9.927H4.227V4.886H23.564v8.422Z" transform="translate(-2.723 -3.382)" fill="#fff"/>
      <path id="Path_38" data-name="Path 38" d="M22.472,11.948H4.174v7.381h18.3V11.948ZM6.442,19.068H4.422v-6.4h2.02Zm2.48,0H6.9v-6.4h2.02Zm2.483,0H9.385v-6.4h2.02Zm2.525,0H11.91v-6.4h2.02Zm2.483,0h-2.02v-6.4h2.02Zm5.788-.009H16.824V17.911H22.2Zm0-1.464H16.824V15.982H22.2Zm0-1.957H17.42V14.625H22.2Z" transform="translate(-2.149 0.003)" fill="#fff"/>
      <path id="Path_39" data-name="Path 39" d="M22.472,4.834H4.174v7.381h18.3V4.834ZM6.206,11.972H4.42V5.5H6.206Zm2.2,0H6.615V5.5H8.4Zm2.2,0H8.811V5.5H10.6Zm2.2,0H11.006V5.5h1.787Zm2.417-.023L13.087,6.17l1.462-.537,2.121,5.776Zm3.19.023-3.13-5.3,1.341-.792,3.132,5.3Z" transform="translate(-2.149 -2.809)" fill="#fff"/>
    </g>
  </g>
</svg>
