<svg xmlns="http://www.w3.org/2000/svg" xmlns:xlink="http://www.w3.org/1999/xlink" width="36.86" height="36.86" viewBox="0 0 36.86 36.86">
  <defs>
    <clipPath id="clip-path">
      <rect id="Rectangle_5" data-name="Rectangle 5" width="18" height="18" fill="#fff"/>
    </clipPath>
  </defs>
  <g id="Group_3" data-name="Group 3" transform="translate(-1762 -107)">
    <g id="Group_13371" data-name="Group 13371" transform="translate(1742 91)">
      <rect id="Rectangle_4" data-name="Rectangle 4" width="36.86" height="36.86" rx="8" transform="translate(20 16)" fill="#eda2a5"/>
    </g>
    <g id="Frame" transform="translate(1771 116)" clip-path="url(#clip-path)">
      <path id="Path_3" data-name="Path 3" d="M17.768,2.51a1.5,1.5,0,0,0-1.4-.68l-6.8.648a1.506,1.506,0,0,0-.512.143.1.1,0,0,1-.093,0,1.508,1.508,0,0,0-.513-.143l-6.8-.648a1.5,1.5,0,0,0-1.415.7A1.627,1.627,0,0,0,0,3.4V14.029a1.5,1.5,0,0,0,1.358,1.494l6.8.648c.048,0,.095.007.142.007a1.493,1.493,0,0,0,.655-.151.108.108,0,0,1,.095,0,1.5,1.5,0,0,0,.654.151c.047,0,.095,0,.142-.007l6.8-.647A1.49,1.49,0,0,0,18,14.029V3.369A1.551,1.551,0,0,0,17.768,2.51ZM1.6,13.835V3.558a.117.117,0,0,1,.128-.116l6.381.608a.117.117,0,0,1,.106.116V14.442a.117.117,0,0,1-.128.117L1.7,13.951A.116.116,0,0,1,1.6,13.835Zm14.722.116-6.381.608a.117.117,0,0,1-.128-.117V4.166a.117.117,0,0,1,.106-.116L16.3,3.442a.117.117,0,0,1,.128.116V13.835A.116.116,0,0,1,16.319,13.951Z" fill="#fff"/>
      <path id="Path_4" data-name="Path 4" d="M7.119,11.369a.578.578,0,0,1-.063,0l-4.465-.474a.588.588,0,1,1,.124-1.17l4.465.474a.588.588,0,0,1-.061,1.173Z" fill="#fff"/>
      <path id="Path_5" data-name="Path 5" d="M7.119,8.678a.566.566,0,0,1-.063,0L6.034,8.567A.588.588,0,1,1,6.158,7.4l1.023.109a.588.588,0,0,1-.062,1.173Z" fill="#fff"/>
      <path id="Path_6" data-name="Path 6" d="M7.119,6.352a.566.566,0,0,1-.063,0L6.034,6.241a.588.588,0,1,1,.124-1.17l1.023.109a.588.588,0,0,1-.062,1.173Z" fill="#fff"/>
      <path id="Path_7" data-name="Path 7" d="M7.119,13.7a.554.554,0,0,1-.063,0l-4.465-.474a.588.588,0,0,1,.124-1.17l4.465.474A.588.588,0,0,1,7.119,13.7Z" fill="#fff"/>
      <path id="Path_8" data-name="Path 8" d="M10.83,11.369a.588.588,0,0,1-.061-1.173l4.465-.474a.588.588,0,1,1,.124,1.17l-4.465.474A.48.48,0,0,1,10.83,11.369Z" fill="#fff"/>
      <path id="Path_9" data-name="Path 9" d="M10.83,13.7a.588.588,0,0,1-.061-1.173l4.465-.474a.588.588,0,1,1,.124,1.17l-4.465.474A.539.539,0,0,1,10.83,13.7Z" fill="#fff"/>
      <path id="Path_10" data-name="Path 10" d="M10.83,6.772A.588.588,0,0,1,10.768,5.6l4.465-.474a.588.588,0,0,1,.124,1.17l-4.465.474A.548.548,0,0,1,10.83,6.772Z" fill="#fff"/>
      <path id="Path_11" data-name="Path 11" d="M10.83,9.1a.588.588,0,0,1-.061-1.173l4.465-.474a.588.588,0,0,1,.124,1.17l-4.465.474A.473.473,0,0,1,10.83,9.1Z" fill="#fff"/>
      <path id="Path_12" data-name="Path 12" d="M4.293,8.762,2.775,8.618a.656.656,0,0,1-.594-.653V5.243A.656.656,0,0,1,2.9,4.59l1.518.144a.656.656,0,0,1,.594.653V8.109A.656.656,0,0,1,4.293,8.762Z" fill="#fff"/>
    </g>
  </g>
</svg>
