<svg xmlns="http://www.w3.org/2000/svg" width="36.86" height="36.86" viewBox="0 0 36.86 36.86">
  <g id="Group_3" data-name="Group 3" transform="translate(-1762 -107)">
    <g id="Group_13371" data-name="Group 13371" transform="translate(1742 91)">
      <rect id="Rectangle_4" data-name="Rectangle 4" width="36.86" height="36.86" rx="8" transform="translate(20 16)" fill="#79abc9"/>
    </g>
    <path id="bx_bxs-cctv" d="M17.01,6.934,5.977,2.077a.9.9,0,0,0-1.194.471L2.073,8.87a.9.9,0,0,0,.474,1.186l6.284,2.693-1.12,2.8h-3.9v-2.71H2v7.226H3.806v-2.71h3.9a1.8,1.8,0,0,0,1.676-1.136l1.1-2.759,3.088,1.323a.9.9,0,0,0,1.184-.468l2.71-6.194a.9.9,0,0,0-.463-1.189ZM18.2,14.981l-1.678-.67,1.8-4.516L20,10.464Z" transform="translate(1771 114)" fill="#fff"/>
  </g>
</svg>
