<svg xmlns="http://www.w3.org/2000/svg" xmlns:xlink="http://www.w3.org/1999/xlink" width="36.86" height="36.86" viewBox="0 0 36.86 36.86">
  <defs>
    <clipPath id="clip-path">
      <rect id="Rectangle_1" data-name="Rectangle 1" width="20.105" height="20.105" transform="translate(2.712 0.702)" fill="#fff"/>
    </clipPath>
  </defs>
  <g id="Group_2" data-name="Group 2" transform="translate(-586 -154)">
    <g id="Group_13371" data-name="Group 13371" transform="translate(566 138)">
      <rect id="Rectangle_4" data-name="Rectangle 4" width="36.86" height="36.86" rx="8" transform="translate(20 16)" fill="#8f9cff"/>
    </g>
    <g id="Group_13390" data-name="Group 13390" transform="translate(592.97 161.298)">
      <g id="Group_1" data-name="Group 1" clip-path="url(#clip-path)">
        <path id="Path_1" data-name="Path 1" d="M6.293,6.689h.059c.044-.1.088-.2.134-.288a4.735,4.735,0,0,1,.6-.916L6.45,4.85H4.834v-.7h.911l-1.16-1.16.5-.5,1.16,1.16V2.737h.7V4.353l.626.626A4.666,4.666,0,0,1,8.79,4.194,3.509,3.509,0,0,0,5.538,2.032H4.129V3.441A3.5,3.5,0,0,0,6.293,6.689Z" fill="#fff"/>
        <path id="Path_2" data-name="Path 2" d="M7.115,6.718l-.025.053a5.036,5.036,0,0,1,2.6,1.794,10.455,10.455,0,0,1,2.064,4.016,4.51,4.51,0,0,1,.087,1.6l6.52-1.331a2.6,2.6,0,0,1,1.926.357l.339-.756a8.7,8.7,0,0,0,.763-3.541,4.912,4.912,0,0,0-.519-2.195A4.007,4.007,0,0,0,14.78,5.376l-.434.348v-.5a5.625,5.625,0,0,1,1.658-4l-.5-.5a6.325,6.325,0,0,0-1.865,4.5v.5l-.435-.349A4.026,4.026,0,0,0,10.7,4.5,3.984,3.984,0,0,0,7.115,6.718Z" fill="#fff"/>
        <path id="Path_3" data-name="Path 3" d="M13.791,3.417A2.825,2.825,0,0,0,11.375,1,2.825,2.825,0,0,0,13.791,3.417Z" fill="#fff"/>
        <path id="Path_4" data-name="Path 4" d="M6.736,11.225A2.466,2.466,0,0,0,4.9,14.187a2.414,2.414,0,0,0,.751,1.26l3.89-.794a2.463,2.463,0,0,0-2.8-3.428Z" fill="#fff"/>
        <path id="Path_5" data-name="Path 5" d="M4.075,15.769l.759-.155a3.172,3.172,0,1,1,5.514-1.125l.755-.154a3.813,3.813,0,0,0-.03-1.593A9.682,9.682,0,0,0,9.155,9.018c-.753-.891-1.938-1.887-3.3-1.566S3.871,9.188,3.591,10.321a9.665,9.665,0,0,0-.067,4.187A3.829,3.829,0,0,0,4.075,15.769Z" fill="#fff"/>
        <path id="Path_6" data-name="Path 6" d="M22.818,15.06l-.145-.69-.81.171.469-.684-.581-.4-.967,1.409a.331.331,0,0,0-.042.09A1.9,1.9,0,0,0,18.89,13.5a1.932,1.932,0,0,0-.385.039l-.035.007a3.494,3.494,0,0,1-.088,1.275l-.035.135-.681-.179.035-.134a2.8,2.8,0,0,0,.077-.955l-2.026.413a3.456,3.456,0,0,1-.169,1.582l-.664-.237a2.758,2.758,0,0,0,.143-1.2l-1.72.352a3.476,3.476,0,0,1-.187,1.393l-.664-.237a2.76,2.76,0,0,0,.156-1.014l-1.723.352a3.466,3.466,0,0,1-.2,1.2l-.664-.241a2.746,2.746,0,0,0,.154-.821L8.5,15.585a3.4,3.4,0,0,1-.2,1.01l-.663-.237a2.707,2.707,0,0,0,.141-.626l-4.719.963a.423.423,0,0,0,.084.839H18.69a1.9,1.9,0,0,0,1.355-.561l.2-.2A1.9,1.9,0,0,0,20.8,15.42c0-.052-.011-.1-.015-.153a.326.326,0,0,0,.027.042l1.319,1.409.514-.482-.892-.951Z" fill="#fff"/>
      </g>
      <line id="Line_1" data-name="Line 1" x1="20.776" y2="18.095" transform="translate(1.03 1.079)" fill="none" stroke="#fff" stroke-width="1"/>
    </g>
  </g>
</svg>
