<svg width="19" height="15" viewBox="0 0 19 15" fill="none" xmlns="http://www.w3.org/2000/svg">
<path d="M18.75 4.32V11.9531C18.7501 12.7314 18.4523 13.4802 17.9178 14.0458C17.3833 14.6115 16.6526 14.9513 15.8756 14.9953L15.7031 15H3.04688C2.26862 15.0001 1.51985 14.7023 0.954159 14.1678C0.388469 13.6333 0.0487488 12.9026 0.00468761 12.1256L0 11.9531V4.32L9.04875 9.06C9.14942 9.11273 9.26136 9.14027 9.375 9.14027C9.48864 9.14027 9.60058 9.11273 9.70125 9.06L18.75 4.32ZM3.04688 2.21298e-08H15.7031C16.4584 -9.09513e-05 17.1867 0.280308 17.7469 0.786813C18.3071 1.29332 18.6592 1.98983 18.735 2.74125L9.375 7.64438L0.015 2.74125C0.0876781 2.01967 0.415359 1.34767 0.939141 0.846059C1.46292 0.344446 2.14845 0.0461128 2.8725 0.00468763L3.04688 2.21298e-08H15.7031H3.04688Z" fill="white"/>
</svg>
