<svg xmlns="http://www.w3.org/2000/svg" width="36.86" height="36.86" viewBox="0 0 36.86 36.86">
  <g id="Group_10" data-name="Group 10" transform="translate(14449 4425)">
    <rect id="Rectangle_4" data-name="Rectangle 4" width="36.86" height="36.86" rx="8" transform="translate(-14449 -4425)" fill="#79abc9"/>
    <g id="smily" transform="translate(-14443 -4419)">
      <path id="Path_72" data-name="Path 72" d="M12.425,0A12.425,12.425,0,1,0,24.85,12.425,12.439,12.439,0,0,0,12.425,0Zm0,23.3A10.872,10.872,0,1,1,23.3,12.425,10.884,10.884,0,0,1,12.425,23.3Zm6.545-7.086a7.47,7.47,0,0,1-6.545,3.755A7.47,7.47,0,0,1,5.88,16.211a.777.777,0,1,1,1.345-.777,6.029,6.029,0,0,0,10.4,0,.777.777,0,0,1,1.345.777ZM5.76,9.365a1.554,1.554,0,1,1,1.554,1.554A1.556,1.556,0,0,1,5.76,9.365Zm13.33,0a1.554,1.554,0,1,1-1.554-1.554A1.556,1.556,0,0,1,19.09,9.365Z" fill="#fff"/>
    </g>
  </g>
</svg>
