<svg xmlns="http://www.w3.org/2000/svg" xmlns:xlink="http://www.w3.org/1999/xlink" width="36.86" height="36.86" viewBox="0 0 36.86 36.86">
  <defs>
    <clipPath id="clip-path">
      <rect id="Rectangle_1" data-name="Rectangle 1" width="18.765" height="18.765" transform="translate(0.383 0.372)" fill="#fff"/>
    </clipPath>
  </defs>
  <g id="Group_1" data-name="Group 1" transform="translate(-559 -142)">
    <g id="Group_13371" data-name="Group 13371" transform="translate(539 126)">
      <rect id="Rectangle_4" data-name="Rectangle 4" width="36.86" height="36.86" rx="8" transform="translate(20 16)" fill="#f5b695"/>
    </g>
    <g id="Frame_8_" data-name="Frame (8)" transform="translate(567.617 151.628)" clip-path="url(#clip-path)">
      <path id="Path_1" data-name="Path 1" d="M7.9,3.627,7.73,3.115a.751.751,0,0,0-.952-.469l-5.887,2a.747.747,0,0,0-.451.421.772.772,0,0,0-.013.547l.171.5a.212.212,0,0,0,.269.132l6.9-2.358A.212.212,0,0,0,7.9,3.627Z" fill="#fff"/>
      <path id="Path_2" data-name="Path 2" d="M11.514,14.24,8.394,5.069a.212.212,0,0,0-.269-.132L1.221,7.3a.212.212,0,0,0-.132.268l3.117,9.162a.75.75,0,0,0,.952.469l5.887-2a.75.75,0,0,0,.469-.952ZM7.947,11.146a.55.55,0,0,1-.769.227l-.688-.4a.212.212,0,0,0-.3.1l-.271.683a.55.55,0,0,1-.723.305.561.561,0,0,1-.294-.727l.35-.882a.212.212,0,0,0-.09-.261l-.97-.566a.55.55,0,1,1,.555-.95l.77.449a.212.212,0,0,0,.3-.1l.333-.838a.55.55,0,0,1,.739-.3.561.561,0,0,1,.278.719L6.756,9.644a.212.212,0,0,0,.09.261l.874.51A.56.56,0,0,1,7.947,11.146Z" fill="#fff"/>
      <path id="Path_3" data-name="Path 3" d="M19.127,6.1a.746.746,0,0,0-.337-.465l-5.3-3.251a.751.751,0,0,0-1.032.246l-.26.422a.247.247,0,0,0,.08.34l6.165,3.838a.212.212,0,0,0,.292-.069l.3-.493A.745.745,0,0,0,19.127,6.1Z" fill="#fff"/>
      <path id="Path_4" data-name="Path 4" d="M17.869,8.171l-6.2-3.858a.212.212,0,0,0-.292.069L9.967,6.673a.212.212,0,0,0-.02.179l2.688,7.9a.747.747,0,0,1-.059.614.772.772,0,0,1-.426.344l-1.041.354a.212.212,0,0,0-.043.381l.794.487a.751.751,0,0,0,1.032-.247l5.045-8.225A.212.212,0,0,0,17.869,8.171Zm-3.508,1.963-2.221.313h-.013l-.018,0-.045,0h-.048a.538.538,0,0,1-.106-.02l-.017-.006-.031-.011-.022-.009-.024-.011-.023-.012-.022-.013-.021-.014-.021-.015-.019-.015-.021-.019-.016-.015-.023-.024-.011-.013-.025-.032-.006-.008a.55.55,0,0,1-.051-.09l0-.012c0-.012-.009-.023-.013-.035s-.005-.018-.008-.027,0-.015-.006-.022,0-.021-.006-.031,0-.011,0-.017,0,0,0,0,0-.023,0-.034,0-.015,0-.023,0-.017,0-.025,0-.021,0-.032,0,0,0,0l.111-1.321a.55.55,0,0,1,1.1.092L12.692,9a.212.212,0,0,0,.24.227l1.275-.18a.55.55,0,0,1,.154,1.09Z" fill="#fff"/>
    </g>
  </g>
</svg>
