<svg width="18" height="18" viewBox="0 0 18 18" fill="none" xmlns="http://www.w3.org/2000/svg">
<path d="M7.13568 9.1954C7.13568 8.22261 7.93077 7.43104 8.90801 7.43104C9.88514 7.43104 10.6802 8.22263 10.6802 9.1954C10.6802 10.1684 9.88514 10.9599 8.90801 10.9599C7.93077 10.9599 7.13568 10.1684 7.13568 9.1954ZM4.50264 0.0108643H13.4975C15.9757 0.0108643 17.9918 2.01826 17.9918 4.48561V5.7324H11.3784C10.6805 5.23747 9.82826 4.9451 8.90801 4.9451C7.98778 4.9451 7.13537 5.23747 6.4375 5.7324H0.00830841V4.48561C0.00830841 2.01824 2.02447 0.0108643 4.50264 0.0108643ZM2.68248 4.2667C2.68248 4.54013 2.90712 4.76389 3.18185 4.76389H4.72481C4.99951 4.76389 5.22419 4.54013 5.22419 4.2667V2.73036C5.22419 2.45694 4.99953 2.23316 4.72481 2.23316H3.18185C2.90714 2.23316 2.68248 2.4569 2.68248 2.73036V4.2667ZM4.63886 9.1954C4.63886 11.5393 6.5541 13.4458 8.90803 13.4458C11.262 13.4458 13.1771 11.5393 13.1771 9.1954C13.1771 8.55014 13.0311 7.93819 12.7715 7.38968H17.9918V13.5144C17.9918 15.9819 15.9757 17.9892 13.4975 17.9892H4.50262C2.02445 17.9892 0.00828934 15.9819 0.00828934 13.5144V7.38968H5.04444C4.78484 7.93819 4.63886 8.55014 4.63886 9.1954Z" fill="white"/>
</svg>
