<svg width="18" height="18" viewBox="0 0 18 18" fill="none" xmlns="http://www.w3.org/2000/svg">
<path d="M3.52733 0C1.58757 0 0 1.58754 0 3.52733V14.4732C0 16.413 1.58754 18 3.52733 18H14.4732C16.413 18 18 16.413 18 14.4732V3.52733C18 1.58757 16.413 0 14.4732 0H3.52733ZM4.4145 2.97036C5.34457 2.97036 5.91746 3.58094 5.93514 4.38353C5.93514 5.1684 5.34454 5.79614 4.39651 5.79614H4.37906C3.46669 5.79614 2.87699 5.16844 2.87699 4.38353C2.87699 3.58095 3.48454 2.97036 4.41448 2.97036H4.4145ZM12.4294 6.72158C14.2181 6.72158 15.559 7.89069 15.559 10.403V15.0932H12.8407V10.7175C12.8407 9.61793 12.4473 8.86776 11.4635 8.86776C10.7125 8.86776 10.2649 9.37338 10.0683 9.86183C9.99655 10.0366 9.9789 10.2806 9.9789 10.5251V15.0932H7.26056C7.26056 15.0932 7.29623 7.6809 7.26056 6.9134H9.97946V8.07174C10.3407 7.5144 10.9869 6.72156 12.4294 6.72156V6.72158ZM3.03733 6.914H5.75567V15.0932H3.03733V6.914Z" fill="white"/>
</svg>
