<svg xmlns="http://www.w3.org/2000/svg" width="36.86" height="36.86" viewBox="0 0 36.86 36.86">
  <g id="Group_47" data-name="Group 47" transform="translate(14707 4763)">
    <rect id="Rectangle_4" data-name="Rectangle 4" width="36.86" height="36.86" rx="8" transform="translate(-14707 -4763)" fill="#f5a275"/>
    <g id="Magazines" transform="translate(-14765 -4759)">
      <g id="Group_14" data-name="Group 14" transform="translate(65)">
        <g id="Group_13" data-name="Group 13" transform="translate(0)">
          <path id="Path_77" data-name="Path 77" d="M86.521,24.143a.437.437,0,0,0-.437.437v1.409H70.968v-14a.437.437,0,1,0-.874,0V24.338a2.979,2.979,0,0,0-4.22,0V2.984s0-.009,0-.013a2.11,2.11,0,0,1,4.22.013v7.551a.437.437,0,1,0,.874,0V3.421H86.083v19.7a.437.437,0,0,0,.874,0V2.984a.437.437,0,0,0-.437-.437H70.936A2.984,2.984,0,0,0,65,2.984S65,2.993,65,3v23.44s0,.006,0,.009a2.987,2.987,0,0,0,2.984,2.984H85.435a.437.437,0,0,0,0-.874H67.984a2.112,2.112,0,0,1-2.11-2.107s0,0,0,0v-.009a2.11,2.11,0,0,1,4.22.009.437.437,0,0,0,.571.416H86.521a.437.437,0,0,0,.437-.437V24.58A.437.437,0,0,0,86.521,24.143Z" transform="translate(-65)" fill="#fff"/>
        </g>
      </g>
      <g id="Group_16" data-name="Group 16" transform="translate(71.514 16.532)">
        <g id="Group_15" data-name="Group 15" transform="translate(0)">
          <path id="Path_78" data-name="Path 78" d="M184.16,287.6h-5.394a.437.437,0,1,0,0,.874h5.394a.437.437,0,1,0,0-.874Z" transform="translate(-178.328 -287.601)" fill="#fff"/>
        </g>
      </g>
      <g id="Group_18" data-name="Group 18" transform="translate(71.514 18.361)">
        <g id="Group_17" data-name="Group 17" transform="translate(0)">
          <path id="Path_79" data-name="Path 79" d="M184.16,319.436h-5.394a.437.437,0,0,0,0,.874h5.394a.437.437,0,1,0,0-.874Z" transform="translate(-178.328 -319.436)" fill="#fff"/>
        </g>
      </g>
      <g id="Group_20" data-name="Group 20" transform="translate(71.514 20.191)">
        <g id="Group_19" data-name="Group 19" transform="translate(0)">
          <path id="Path_80" data-name="Path 80" d="M184.16,351.272h-5.394a.437.437,0,0,0,0,.874h5.394a.437.437,0,0,0,0-.874Z" transform="translate(-178.328 -351.272)" fill="#fff"/>
        </g>
      </g>
      <g id="Group_22" data-name="Group 22" transform="translate(71.514 22.021)">
        <g id="Group_21" data-name="Group 21" transform="translate(0)">
          <path id="Path_81" data-name="Path 81" d="M184.16,383.107h-5.394a.437.437,0,0,0,0,.874h5.394a.437.437,0,1,0,0-.874Z" transform="translate(-178.328 -383.107)" fill="#fff"/>
        </g>
      </g>
      <g id="Group_24" data-name="Group 24" transform="translate(71.514 23.851)">
        <g id="Group_23" data-name="Group 23" transform="translate(0)">
          <path id="Path_82" data-name="Path 82" d="M184.16,414.942h-5.394a.437.437,0,0,0,0,.874h5.394a.437.437,0,1,0,0-.874Z" transform="translate(-178.328 -414.942)" fill="#fff"/>
        </g>
      </g>
      <g id="Group_26" data-name="Group 26" transform="translate(78.733 5.552)">
        <g id="Group_25" data-name="Group 25">
          <path id="Path_83" data-name="Path 83" d="M309.753,96.59h-5.395a.437.437,0,0,0,0,.874h5.395a.437.437,0,0,0,0-.874Z" transform="translate(-303.921 -96.59)" fill="#fff"/>
        </g>
      </g>
      <g id="Group_28" data-name="Group 28" transform="translate(78.733 7.382)">
        <g id="Group_27" data-name="Group 27">
          <path id="Path_84" data-name="Path 84" d="M309.753,128.425h-5.395a.437.437,0,0,0,0,.874h5.395a.437.437,0,0,0,0-.874Z" transform="translate(-303.921 -128.425)" fill="#fff"/>
        </g>
      </g>
      <g id="Group_30" data-name="Group 30" transform="translate(78.733 9.212)">
        <g id="Group_29" data-name="Group 29">
          <path id="Path_85" data-name="Path 85" d="M309.753,160.26h-5.395a.437.437,0,0,0,0,.874h5.395a.437.437,0,0,0,0-.874Z" transform="translate(-303.921 -160.26)" fill="#fff"/>
        </g>
      </g>
      <g id="Group_32" data-name="Group 32" transform="translate(78.733 22.021)">
        <g id="Group_31" data-name="Group 31">
          <path id="Path_86" data-name="Path 86" d="M309.754,383.107h-5.394a.437.437,0,0,0,0,.874h5.394a.437.437,0,0,0,0-.874Z" transform="translate(-303.922 -383.107)" fill="#fff"/>
        </g>
      </g>
      <g id="Group_34" data-name="Group 34" transform="translate(78.733 23.851)">
        <g id="Group_33" data-name="Group 33">
          <path id="Path_87" data-name="Path 87" d="M309.754,414.942h-5.394a.437.437,0,0,0,0,.874h5.394a.437.437,0,0,0,0-.874Z" transform="translate(-303.922 -414.942)" fill="#fff"/>
        </g>
      </g>
      <g id="Group_36" data-name="Group 36" transform="translate(75.419 27.263)">
        <g id="Group_35" data-name="Group 35">
          <path id="Path_88" data-name="Path 88" d="M256.564,474.3h-9.871a.437.437,0,1,0,0,.874h9.871a.437.437,0,1,0,0-.874Z" transform="translate(-246.256 -474.304)" fill="#fff"/>
        </g>
      </g>
      <g id="Group_38" data-name="Group 38" transform="translate(66.293 24.755)">
        <g id="Group_37" data-name="Group 37" transform="translate(0)">
          <path id="Path_89" data-name="Path 89" d="M95.6,433.177H89.183A.817.817,0,1,1,90,432.36a.437.437,0,0,0,.874,0,1.691,1.691,0,1,0-1.691,1.691H95.6a.437.437,0,1,0,0-.874Z" transform="translate(-87.492 -430.669)" fill="#fff"/>
        </g>
      </g>
      <g id="Group_40" data-name="Group 40" transform="translate(71.514 5.552)">
        <g id="Group_39" data-name="Group 39" transform="translate(0)">
          <path id="Path_90" data-name="Path 90" d="M184.16,96.59h-5.394a.437.437,0,0,0-.437.437v9.15a.437.437,0,0,0,.437.437h5.394a.437.437,0,0,0,.437-.437v-9.15A.437.437,0,0,0,184.16,96.59Zm-4.957.874H181.4a2.526,2.526,0,0,1,.5,1.813c-.054.189-.488.47-1.534.639a11.055,11.055,0,0,1-1.164.118Zm1.244,6.192-.117,2.083H179.2v-4.83a12,12,0,0,0,1.293-.129,6.529,6.529,0,0,0,.943-.215l.148,2.679h-.7A.437.437,0,0,0,180.446,103.656Zm3.277,2.083H181.2l.091-1.622h.752a.437.437,0,0,0,.436-.461l-.194-3.508a1.216,1.216,0,0,0,.45-.631,2.707,2.707,0,0,0-.257-1.9c-.025-.053-.051-.1-.076-.155h1.316v8.276Z" transform="translate(-178.328 -96.59)" fill="#fff"/>
        </g>
      </g>
      <g id="Group_42" data-name="Group 42" transform="translate(78.733 10.872)">
        <g id="Group_41" data-name="Group 41">
          <path id="Path_91" data-name="Path 91" d="M309.754,189.136h-5.394a.437.437,0,0,0-.437.437v9.15a.437.437,0,0,0,.437.437h5.394a.437.437,0,0,0,.437-.437v-9.15A.437.437,0,0,0,309.754,189.136Zm-.437,9.15H304.8v-1.151l1.533-1.759,1.9,1.678a.437.437,0,1,0,.579-.655l-.535-.474,1.047-1.047v3.407Zm0-4.643-1.7,1.7-1.035-.916a.437.437,0,0,0-.619.04L304.8,195.8V190.01h4.52v3.632Z" transform="translate(-303.922 -189.136)" fill="#fff"/>
        </g>
      </g>
      <g id="Group_44" data-name="Group 44" transform="translate(79.789 12.312)">
        <g id="Group_43" data-name="Group 43">
          <path id="Path_92" data-name="Path 92" d="M323.955,214.2a1.661,1.661,0,1,0,1.661,1.661A1.663,1.663,0,0,0,323.955,214.2Zm0,2.448a.787.787,0,1,1,.787-.787A.788.788,0,0,1,323.955,216.646Z" transform="translate(-322.294 -214.198)" fill="#fff"/>
        </g>
      </g>
      <g id="Group_46" data-name="Group 46" transform="translate(72.913 9.932)">
        <g id="Group_45" data-name="Group 45" transform="translate(0)">
          <path id="Path_93" data-name="Path 93" d="M204.124,173.08a.437.437,0,0,0-.563-.256l-.622.233a.437.437,0,1,0,.307.819l.622-.233A.437.437,0,0,0,204.124,173.08Z" transform="translate(-202.656 -172.796)" fill="#fff"/>
        </g>
      </g>
    </g>
  </g>
</svg>
