<svg xmlns="http://www.w3.org/2000/svg" xmlns:xlink="http://www.w3.org/1999/xlink" width="36.86" height="36.86" viewBox="0 0 36.86 36.86">
  <defs>
    <clipPath id="clip-path">
      <rect id="Rectangle_1" data-name="Rectangle 1" width="18.765" height="18.765" transform="translate(0.383 0.372)" fill="#fff"/>
    </clipPath>
  </defs>
  <g id="Group_1" data-name="Group 1" transform="translate(-558 -145)">
    <g id="Group_13371" data-name="Group 13371" transform="translate(538 129)">
      <rect id="Rectangle_4" data-name="Rectangle 4" width="36.86" height="36.86" rx="8" transform="translate(20 16)" fill="#ff9eae"/>
    </g>
    <g id="Frame_10_" data-name="Frame (10)" transform="translate(566.617 153.628)" clip-path="url(#clip-path)">
      <path id="Path_1" data-name="Path 1" d="M7,8.509a.9.9,0,1,0-1.279,0A.906.906,0,0,0,7,8.509Z" fill="#fff"/>
      <path id="Path_2" data-name="Path 2" d="M6.362,9.913a2.344,2.344,0,0,0-2.007,1.144.4.4,0,0,0,0,.405.411.411,0,0,0,.363.212H8.008a.411.411,0,0,0,.363-.212.4.4,0,0,0,0-.405A2.344,2.344,0,0,0,6.362,9.913Z" fill="#fff"/>
      <path id="Path_3" data-name="Path 3" d="M17.621,3.5H1.91A1.529,1.529,0,0,0,.383,5.027v8.586A1.529,1.529,0,0,0,1.91,15.14H17.621a1.529,1.529,0,0,0,1.527-1.527V5.027A1.529,1.529,0,0,0,17.621,3.5ZM9.36,12.026a1.54,1.54,0,0,1-1.353.787H4.716a1.552,1.552,0,0,1-1.341-2.337,3.48,3.48,0,0,1,1.4-1.317,2.044,2.044,0,1,1,3.169,0,3.48,3.48,0,0,1,1.4,1.317A1.525,1.525,0,0,1,9.36,12.026Zm5.973.017h-3.1a.57.57,0,0,1,0-1.139h3.1a.57.57,0,1,1,0,1.139Zm.842-2.154H12.229a.57.57,0,0,1,0-1.139h3.946a.57.57,0,1,1,0,1.139Zm0-2.154H12.229a.57.57,0,0,1,0-1.139h3.946a.57.57,0,1,1,0,1.139Z" fill="#fff"/>
    </g>
  </g>
</svg>
