<svg xmlns="http://www.w3.org/2000/svg" width="36.86" height="36.86" viewBox="0 0 36.86 36.86">
  <g id="Group_1" data-name="Group 1" transform="translate(-548 -145)">
    <g id="Group_13371" data-name="Group 13371" transform="translate(528 129)">
      <rect id="Rectangle_4" data-name="Rectangle 4" width="36.86" height="36.86" rx="8" transform="translate(20 16)" fill="#aaceed"/>
    </g>
    <path id="Frame" d="M14.8,6.858V4.739A2.539,2.539,0,0,0,12.269,2.2H6.279A2.539,2.539,0,0,0,3.745,4.739V18.1a2.539,2.539,0,0,0,2.534,2.534h5.99A2.538,2.538,0,0,0,14.8,18.1V15.99a4.574,4.574,0,0,0,0-9.132Zm2.811,5.377a.228.228,0,0,1-.327,0l-.442-.442-.442.442a.228.228,0,0,1-.327,0c-.244-.253.23-.511.442-.769-.212-.253-.687-.516-.442-.769s.511.23.769.447c.258-.216.516-.686.77-.447s-.23.516-.442.769c.212.258.687.516.442.769Zm-6.441.111V10.489a.684.684,0,0,1,1.332-.212L14.7,9.167a.582.582,0,0,1,.548.074.752.752,0,0,1,.29.6V13a.657.657,0,0,1-.806.7L12.5,12.571a.686.686,0,0,1-1.332-.226ZM8.14,2.67H10.4a.23.23,0,0,1,0,.461H8.14a.23.23,0,0,1,0-.461ZM9.269,20.229a.516.516,0,1,1,.358-.155.516.516,0,0,1-.358.155Zm5.073-2.589a1.152,1.152,0,0,1-1.152,1.152H5.357A1.152,1.152,0,0,1,4.205,17.64V4.739A1.152,1.152,0,0,1,5.357,3.587H13.19a1.152,1.152,0,0,1,1.152,1.152V6.858a4.571,4.571,0,0,0,0,9.132Zm-2.258-7.151c0,.032,0,1.76,0,1.857a.226.226,0,0,1-.451,0V10.489a.226.226,0,0,1,.451,0Zm2.82,2.778-2.359-1.193v-1.3L14.872,9.59c.106-.028.2.1.2.253V13a.254.254,0,0,1-.17.267Z" transform="translate(555.255 151.795)" fill="#fff"/>
  </g>
</svg>
