<svg xmlns="http://www.w3.org/2000/svg" xmlns:xlink="http://www.w3.org/1999/xlink" width="36.86" height="36.86" viewBox="0 0 36.86 36.86">
  <defs>
    <clipPath id="clip-path">
      <rect id="Rectangle_1" data-name="Rectangle 1" width="17.425" height="17.425" transform="translate(0.053 0.042)" fill="#fff"/>
    </clipPath>
  </defs>
  <g id="Group_1" data-name="Group 1" transform="translate(-586 -188)">
    <g id="Group_13371" data-name="Group 13371" transform="translate(566 172)">
      <rect id="Rectangle_4" data-name="Rectangle 4" width="36.86" height="36.86" rx="8" transform="translate(20 16)" fill="#fba0e7"/>
    </g>
    <g id="Frame_1_" data-name="Frame (1)" transform="translate(595.947 197.958)" clip-path="url(#clip-path)">
      <path id="Path_1" data-name="Path 1" d="M.053,6.43v4.649a1.162,1.162,0,0,0,1.162,1.162H2.958V5.268H1.215A1.162,1.162,0,0,0,.053,6.43ZM8.188,1.781,4.121,4.493v8.523l4.068,2.712a1.162,1.162,0,0,0,1.162-1.162V2.943A1.162,1.162,0,0,0,8.188,1.781Zm6.65,6.973L17.264,6.33a.6.6,0,1,0-.839-.839L14,7.915,11.575,5.49a.6.6,0,1,0-.839.839L13.16,8.755,10.735,11.18a.6.6,0,1,0,.839.839L14,9.594l2.425,2.425a.6.6,0,1,0,.839-.839Z" fill="#fff"/>
    </g>
  </g>
</svg>
