<svg xmlns="http://www.w3.org/2000/svg" width="36.86" height="36.86" viewBox="0 0 36.86 36.86">
  <g id="Group_10" data-name="Group 10" transform="translate(14449 4425)">
    <rect id="Rectangle_4" data-name="Rectangle 4" width="36.86" height="36.86" rx="8" transform="translate(-14449 -4425)" fill="#79abc9"/>
    <g id="car" transform="translate(-14445.001 -4483.324)">
      <path id="Path_72" data-name="Path 72" d="M28.441,72.963a.582.582,0,0,0-.511-.352H25.313a.582.582,0,0,0-.511.352,4.238,4.238,0,0,0-.149.53L22.9,68.657a2.026,2.026,0,0,0-1.9-1.333H7.636a2.026,2.026,0,0,0-1.9,1.333L3.988,73.494a4.251,4.251,0,0,0-.15-.53.582.582,0,0,0-.511-.352H.71a.582.582,0,0,0-.511.352,2.578,2.578,0,0,0,0,1.985A.582.582,0,0,0,.71,75.3H3.335l-.039.109a1.342,1.342,0,0,0-.919,1.273v8.865a.645.645,0,0,0,.645.645H6.267a.645.645,0,0,0,.645-.645V82.407H21.728v3.139a.645.645,0,0,0,.645.645h3.246a.645.645,0,0,0,.645-.645V76.682a1.342,1.342,0,0,0-.918-1.273l-.04-.109H27.93a.582.582,0,0,0,.511-.352A2.578,2.578,0,0,0,28.441,72.963ZM7.883,69.7H20.756L22.8,75.34H5.843Zm.359,9.618H5.526a1.055,1.055,0,0,1,0-2.11H8.242a1.055,1.055,0,1,1,0,2.11Zm14.872,0H20.4a1.055,1.055,0,1,1,0-2.11h2.715a1.055,1.055,0,1,1,0,2.11Z" transform="translate(0)" fill="#fff" stroke="#000" stroke-linecap="round" stroke-linejoin="round" stroke-width="0"/>
    </g>
  </g>
</svg>
