<svg xmlns="http://www.w3.org/2000/svg" width="18" height="18" viewBox="0 0 18 18">
  <g id="Group_1" data-name="Group 1" transform="translate(-757 113)">
    <path id="phone-icon" d="M12,12.792l1.55-1.551a1.515,1.515,0,0,1,1.619-.332l1.889.754A1.509,1.509,0,0,1,18,13.049V16.51A1.5,1.5,0,0,1,16.422,18C3.185,17.174.514,5.96.009,1.668A1.5,1.5,0,0,1,1.511,0H4.853A1.495,1.495,0,0,1,6.237.941l.754,1.89a1.5,1.5,0,0,1-.325,1.62L5.116,6S6.008,12.045,12,12.792Z" transform="translate(757 -113)" fill="#283064"/>
  </g>
</svg>
