<svg xmlns="http://www.w3.org/2000/svg" width="36.86" height="36.86" viewBox="0 0 36.86 36.86">
  <g id="Group_3" data-name="Group 3" transform="translate(-1779 -137)">
    <g id="Group_13371" data-name="Group 13371" transform="translate(1759 121)">
      <rect id="Rectangle_4" data-name="Rectangle 4" width="36.86" height="36.86" rx="8" transform="translate(20 16)" fill="#be9aff"/>
    </g>
    <g id="Frame_1_" data-name="Frame (1)" transform="translate(1788.875 146.875)">
      <path id="Path_3" data-name="Path 3" d="M10.125,1.125H1.688a.562.562,0,0,0-.562.563V14.063a.562.562,0,0,0,.563.563h8.438a.562.562,0,0,0,.563-.562V1.688A.562.562,0,0,0,10.125,1.125Zm-4.5,3.094a.281.281,0,0,1,.563,0V5.344a.281.281,0,0,1-.562,0ZM3.938,13.5H3.375a.563.563,0,0,1,0-1.125h.563a.563.563,0,0,1,0,1.125Zm2.25,0H5.625a.563.563,0,0,1,0-1.125h.563a.563.563,0,0,1,0,1.125ZM5.906,6.75A1.406,1.406,0,0,1,4.688,4.641a.281.281,0,1,1,.487.281.844.844,0,1,0,1.462,0,.281.281,0,0,1,.1-.384A.278.278,0,0,1,6.881,4.5a.281.281,0,0,1,.243.141A1.406,1.406,0,0,1,5.906,6.75ZM8.438,13.5H7.875a.563.563,0,0,1,0-1.125h.563a.563.563,0,0,1,0,1.125Z" fill="#fff"/>
      <path id="Path_4" data-name="Path 4" d="M16.313,5.063h-2.25a.562.562,0,0,0-.562.563V6.75A.563.563,0,0,0,13.559,7l.563,1.125a.563.563,0,0,0,.5.311H15.75a.563.563,0,0,0,.5-.311L16.816,7a.563.563,0,0,0,.059-.252V5.625A.562.562,0,0,0,16.313,5.063Z" fill="#fff"/>
      <path id="Path_5" data-name="Path 5" d="M14.625,9v6.188a.563.563,0,0,1-.562.563h-4.5A.563.563,0,0,1,9,15.188H7.875a1.689,1.689,0,0,0,1.688,1.688h4.5a1.689,1.689,0,0,0,1.688-1.687V9Z" fill="#fff"/>
      <path id="Path_6" data-name="Path 6" d="M16.313,3.938a.562.562,0,0,0-.562-.562H14.625a.562.562,0,0,0-.562.563V4.5h2.25Z" fill="#fff"/>
    </g>
  </g>
</svg>
