<svg xmlns="http://www.w3.org/2000/svg" xmlns:xlink="http://www.w3.org/1999/xlink" width="36.86" height="36.86" viewBox="0 0 36.86 36.86">
  <defs>
    <clipPath id="clip-path">
      <rect id="Rectangle_1" data-name="Rectangle 1" width="16.084" height="16.084" transform="translate(0.723 0.712)" fill="#fff"/>
    </clipPath>
  </defs>
  <g id="Group_1" data-name="Group 1" transform="translate(-552 -142)">
    <g id="Group_13371" data-name="Group 13371" transform="translate(532 126)">
      <rect id="Rectangle_4" data-name="Rectangle 4" width="36.86" height="36.86" rx="8" transform="translate(20 16)" fill="#79abc9"/>
    </g>
    <g id="Frame_11_" data-name="Frame (11)" transform="translate(562.277 152.288)" clip-path="url(#clip-path)">
      <path id="Path_1" data-name="Path 1" d="M3.244,6.542h.667c.235,0,.309.135.2.347-.494.982-.995,1.965-1.489,2.954a.5.5,0,0,1-.062.1.136.136,0,0,1-.229,0,.352.352,0,0,1-.068-.116Q1.526,8.36.791,6.9a.141.141,0,0,0-.019-.032C.68,6.671.76,6.536.964,6.536h.674c.087-.257.161-.507.26-.745A7.6,7.6,0,0,1,7.464.9,7.257,7.257,0,0,1,14.478,3a7.869,7.869,0,0,1,2.274,4.655,8.127,8.127,0,0,1-4.121,8.238,7.479,7.479,0,0,1-8.367-.867,9.343,9.343,0,0,1-.686-.642.813.813,0,0,1-.012-1.137.742.742,0,0,1,1.094.019A6.148,6.148,0,0,0,7.3,14.928,6.212,6.212,0,0,0,15.182,9.99a6.438,6.438,0,0,0-4.993-7.583,5.9,5.9,0,0,0-5.271,1.58A6.17,6.17,0,0,0,3.281,6.433,1.067,1.067,0,0,0,3.244,6.542Z" fill="#fff"/>
      <path id="Path_2" data-name="Path 2" d="M9.052,6.664a1.056,1.056,0,0,0-.309-.385,1.639,1.639,0,0,0-.865-.315c-.4-.026-.791-.026-1.18-.032H6.507c-.136-.006-.2-.083-.2-.225v-.79c0-.193.062-.25.241-.25H11.6c.2,0,.253.064.253.263v.578c0,.154-.068.225-.216.225H10.22c.019.032.025.045.031.058a2.214,2.214,0,0,1,.334.777c.019.077.05.1.118.1.309-.006.618,0,.927,0,.173,0,.235.064.235.244v.584c0,.167-.068.238-.235.238H10.7c-.043,0-.08-.006-.093.064A2.467,2.467,0,0,1,8.768,9.811c-.173.051-.352.083-.531.122-.037.006-.068.013-.117.019a.231.231,0,0,0,.049.058c.97,1.085,1.872,2.228,2.781,3.377a.211.211,0,0,1,.037.231.2.2,0,0,1-.192.122H9.621a.246.246,0,0,1-.2-.1c-.636-.777-1.273-1.56-1.916-2.331-.365-.437-.748-.86-1.125-1.291a.277.277,0,0,1-.08-.205c.006-.238,0-.482,0-.719,0-.2.062-.263.253-.27.358-.006.723,0,1.081-.026A1.948,1.948,0,0,0,8.6,8.488,1.225,1.225,0,0,0,9.12,7.82c.006-.026.012-.051.019-.083H6.55c-.192,0-.253-.058-.253-.257V6.915c0-.18.062-.244.235-.244H8.916A.88.88,0,0,1,9.052,6.664Z" fill="#fff"/>
    </g>
  </g>
</svg>
