<svg xmlns="http://www.w3.org/2000/svg" width="36.86" height="36.86" viewBox="0 0 36.86 36.86">
  <g id="Group_1" data-name="Group 1" transform="translate(-582 -147)">
    <g id="Group_13371" data-name="Group 13371" transform="translate(562 131)">
      <rect id="Rectangle_4" data-name="Rectangle 4" width="36.86" height="36.86" rx="8" transform="translate(20 16)" fill="#f5b695"/>
    </g>
    <path id="Frame_3_" data-name="Frame (3)" d="M2.812,6.371A4.049,4.049,0,1,1,6.861,10.42,4.054,4.054,0,0,1,2.812,6.371Zm6.478,4.91H4.432A2.432,2.432,0,0,0,2,13.71v4a.809.809,0,0,0,.81.81h8.1a.809.809,0,0,0,.81-.81v-4A2.432,2.432,0,0,0,9.29,11.281Zm8.671-3.458a.809.809,0,0,0-1.145,0L13.339,11.3,11.887,9.847a.81.81,0,0,0-1.145,1.145l2.025,2.024a.809.809,0,0,0,1.145,0l4.049-4.049A.81.81,0,0,0,17.961,7.823Z" transform="translate(590.998 154.678)" fill="#fff"/>
  </g>
</svg>
