<svg xmlns="http://www.w3.org/2000/svg" width="36.86" height="36.86" viewBox="0 0 36.86 36.86">
  <g id="Group_12" data-name="Group 12" transform="translate(14493 4329)">
    <rect id="Rectangle_4" data-name="Rectangle 4" width="36.86" height="36.86" rx="8" transform="translate(-14493 -4329)" fill="#f5a275"/>
    <g id="drop-icon" transform="translate(-14540.111 -4323)">
      <g id="Group_11" data-name="Group 11" transform="translate(55.111 0)">
        <g id="Group_10" data-name="Group 10" transform="translate(0 0)">
          <path id="Path_72" data-name="Path 72" d="M102.074,252.069a5.937,5.937,0,0,1-3.013-9.189.515.515,0,0,0,.046-.075.506.506,0,0,0-.866-.519,6.949,6.949,0,0,0,.031,8.273,7.006,7.006,0,0,0,3.5,2.478.506.506,0,0,0,.3-.967Z" transform="translate(-94.775 -229.814)" fill="#fff"/>
          <path id="Path_73" data-name="Path 73" d="M75.389,11.833a4.459,4.459,0,0,0-.869-2.657L71.315,4.418a.506.506,0,0,0-.84,0L69.125,6.423,64.948.223a.506.506,0,0,0-.84,0L56.939,10.866a9.418,9.418,0,1,0,17.006,5.577,9.506,9.506,0,0,0-.082-1.239A4.485,4.485,0,0,0,75.389,11.833ZM70.9,5.607l2.785,4.135.018.025a3.481,3.481,0,1,1-5.606,0l.017-.024,1.434-2.129.008-.012Zm2.038,10.835a8.4,8.4,0,1,1-15.17-4.987l.018-.026L64.528,1.413l3.986,5.917L67.27,9.176a4.494,4.494,0,0,0,5.642,6.672Q72.932,16.145,72.933,16.443Z" transform="translate(-55.111 0)" fill="#fff"/>
          <path id="Path_74" data-name="Path 74" d="M312.574,204.694a1.721,1.721,0,0,1,.149-.7.506.506,0,0,0-.925-.411,2.75,2.75,0,0,0,.985,3.4.506.506,0,0,0,.563-.842A1.734,1.734,0,0,1,312.574,204.694Z" transform="translate(-298.575 -192.985)" fill="#fff"/>
          <path id="Path_75" data-name="Path 75" d="M218.107,447.524a.506.506,0,1,0-.567.69A.51.51,0,0,0,218.107,447.524Z" transform="translate(-208.93 -424.568)" fill="#fff"/>
          <path id="Path_76" data-name="Path 76" d="M357.386,268.087a.506.506,0,1,0,0-.842A.509.509,0,0,0,357.386,268.087Z" transform="translate(-341.868 -253.631)" fill="#fff"/>
        </g>
      </g>
    </g>
  </g>
</svg>
