<svg xmlns="http://www.w3.org/2000/svg" xmlns:xlink="http://www.w3.org/1999/xlink" width="36.86" height="36.86" viewBox="0 0 36.86 36.86">
  <defs>
    <clipPath id="clip-path">
      <rect id="Rectangle_1" data-name="Rectangle 1" width="18.765" height="18.765" transform="translate(0.042 0.032)" fill="#fff"/>
    </clipPath>
  </defs>
  <g id="Group_1" data-name="Group 1" transform="translate(-560 -143)">
    <g id="Group_13371" data-name="Group 13371" transform="translate(540 127)">
      <rect id="Rectangle_4" data-name="Rectangle 4" width="36.86" height="36.86" rx="8" transform="translate(20 16)" fill="#ffda9c"/>
    </g>
    <g id="Frame_7_" data-name="Frame (7)" transform="translate(569.958 151.968)" clip-path="url(#clip-path)">
      <path id="Path_1" data-name="Path 1" d="M8.757,10.526l.586-.585a4.16,4.16,0,0,0-.56-.95,3.914,3.914,0,0,0-1-.608L7.2,8.967Z" fill="#fff"/>
      <path id="Path_2" data-name="Path 2" d="M6.421,9.745.042,16.122l1.551,1.551L7.979,11.3Z" fill="#fff"/>
      <path id="Path_3" data-name="Path 3" d="M10.7,1.581,9.141.032,4.486,4.688l1.549,1.56Z" fill="#fff"/>
      <path id="Path_4" data-name="Path 4" d="M6.96,6.876A7.687,7.687,0,0,1,9.544,8.2a7.82,7.82,0,0,1,1.3,2.566L15.215,6.4a7.735,7.735,0,0,1-2.572-1.315,7.736,7.736,0,0,1-1.315-2.572Z" fill="#fff"/>
      <path id="Path_5" data-name="Path 5" d="M16.143,7.023,11.476,11.69l1.559,1.549,4.657-4.656Z" fill="#fff"/>
      <path id="Path_6" data-name="Path 6" d="M17.708,17.7V15.5h-6.6v2.2h-1.1v1.1h8.8V17.7Z" fill="#fff"/>
    </g>
  </g>
</svg>
