<svg xmlns="http://www.w3.org/2000/svg" xmlns:xlink="http://www.w3.org/1999/xlink" width="36.86" height="36.86" viewBox="0 0 36.86 36.86">
  <defs>
    <clipPath id="clip-path">
      <rect id="Rectangle_13" data-name="Rectangle 13" width="22.71" height="22.71" transform="translate(0 0)" fill="#fff"/>
    </clipPath>
  </defs>
  <g id="Group_10" data-name="Group 10" transform="translate(14449 4441)">
    <rect id="Rectangle_4" data-name="Rectangle 4" width="36.86" height="36.86" rx="8" transform="translate(-14449 -4441)" fill="#e7a4a6"/>
    <g id="Frame-5" transform="translate(-14442 -4434)" clip-path="url(#clip-path)">
      <path id="Path_21" data-name="Path 21" d="M19.432,16.213a.5.5,0,0,0-.451-.082l-4.922,1.448a.3.3,0,0,1-.1.014H11.121a.336.336,0,0,1-.174-.046L7.754,15.773a.355.355,0,0,1,.174-.664H12.54v-.564l-.529-.529L6.828,12.98H4.8l-1.487.6v4.017H4.379a.42.42,0,0,1,.114.018l4.2,1.4H13.9l5.4-1.906a.513.513,0,0,0,.135-.894Z" transform="translate(0.234 2.278)" fill="#fff"/>
      <path id="Path_22" data-name="Path 22" d="M1.555,18.706l1.419-.238V12.684l-1.419-.238Z" transform="translate(-0.136 2.166)" fill="#fff"/>
      <path id="Path_23" data-name="Path 23" d="M10.628,13.607c2.739,0,4.968-3.024,4.968-6.742V2.88L10.628,1.555,5.66,2.88V6.865C5.66,10.583,7.889,13.607,10.628,13.607ZM7.434,8.285V6.865a.71.71,0,0,1,.71-.71H9.209V5.091a.71.71,0,0,1,.71-.71h1.419a.71.71,0,0,1,.71.71V6.156h1.065a.71.71,0,0,1,.71.71V8.285a.71.71,0,0,1-.71.71H12.047v1.065a.71.71,0,0,1-.71.71H9.918a.71.71,0,0,1-.71-.71V8.994H8.144a.71.71,0,0,1-.71-.71Z" transform="translate(0.727 -0.123)" fill="#fff"/>
      <path id="Path_24" data-name="Path 24" d="M15.752,3.088h.71v-.71h.71v-.71h-.71V.958h-.71v.71h-.71v.71h.71Z" transform="translate(2.699 -0.249)" fill="#fff"/>
      <path id="Path_25" data-name="Path 25" d="M18.931,3.427h-.71v-.71h-.71v.71H16.8v.71h.71v.71h.71v-.71h.71Z" transform="translate(3.069 0.121)" fill="#fff"/>
      <path id="Path_26" data-name="Path 26" d="M13.87,10.758v.71h.71v.71h.71v-.71H16v-.71h-.71v-.71h-.71v.71Z" transform="translate(2.453 1.662)" fill="#fff"/>
      <path id="Path_27" data-name="Path 27" d="M17.049,8.289h-.71V9h-.71v.71h.71v.71h.71v-.71h.71V9h-.71Z" transform="translate(2.823 1.292)" fill="#fff"/>
      <path id="Path_28" data-name="Path 28" d="M3.438,3.088h.71v-.71h.71v-.71h-.71V.958h-.71v.71h-.71v.71h.71Z" transform="translate(0.111 -0.249)" fill="#fff"/>
      <path id="Path_29" data-name="Path 29" d="M1.679,4.847h.71v-.71H3.1v-.71h-.71v-.71h-.71v.71H.969v.71h.71Z" transform="translate(-0.259 0.121)" fill="#fff"/>
      <path id="Path_30" data-name="Path 30" d="M4.611,10.048v.71H3.9v.71h.71v.71h.71v-.71h.71v-.71H5.32v-.71Z" transform="translate(0.357 1.662)" fill="#fff"/>
      <path id="Path_31" data-name="Path 31" d="M3.561,10.418v-.71h.71V9h-.71v-.71h-.71V9h-.71v.71h.71v.71Z" transform="translate(-0.013 1.292)" fill="#fff"/>
      <path id="Path_32" data-name="Path 32" d="M9.487,8.38V9.445h1.419V8.38a.71.71,0,0,1,.71-.71H12.68V6.251H11.616a.71.71,0,0,1-.71-.71V4.477H9.487V5.542a.71.71,0,0,1-.71.71H7.713V7.671H8.777a.71.71,0,0,1,.71.71Z" transform="translate(1.158 0.491)" fill="#fff"/>
    </g>
  </g>
</svg>
