<svg xmlns="http://www.w3.org/2000/svg" width="36.86" height="36.86" viewBox="0 0 36.86 36.86">
  <g id="Group_11" data-name="Group 11" transform="translate(14512 4436)">
    <rect id="Rectangle_4" data-name="Rectangle 4" width="36.86" height="36.86" rx="8" transform="translate(-14512 -4436)" fill="#f5a275"/>
    <g id="secure" transform="translate(-14507.235 -4431)">
      <g id="Group_10" data-name="Group 10" transform="translate(0.235)">
        <path id="Path_72" data-name="Path 72" d="M127.024,149.921h5.552v-4.2a46.286,46.286,0,0,1-4.72-.4A18.7,18.7,0,0,0,127.024,149.921Z" transform="translate(-120.303 -137.624)" fill="#fff"/>
        <path id="Path_73" data-name="Path 73" d="M261.8.026,261.772,0V6.508c1.334-.037,2.766-.162,4.172-.34A16.366,16.366,0,0,0,261.8.026Z" transform="translate(-247.909)" fill="#fff"/>
        <path id="Path_74" data-name="Path 74" d="M127.89,266.709a45.051,45.051,0,0,1,4.686-.4V262h-5.552A18.808,18.808,0,0,0,127.89,266.709Z" transform="translate(-120.303 -248.112)" fill="#fff"/>
        <path id="Path_75" data-name="Path 75" d="M267.212,148.656a19.2,19.2,0,0,0-.72-3.306,45.789,45.789,0,0,1-4.72.395v4.2h2.85A7.436,7.436,0,0,0,267.212,148.656Z" transform="translate(-247.909 -137.645)" fill="#fff"/>
        <path id="Path_76" data-name="Path 76" d="M381.455,128.384a2.382,2.382,0,0,1,1.675.548,7.357,7.357,0,0,0,2.726,1.4h.919a12.994,12.994,0,0,0-1.689-5.691c-1.212.306-2.692.611-4.275.865A21.06,21.06,0,0,1,381.455,128.384Z" transform="translate(-360.639 -118.033)" fill="#fff"/>
        <path id="Path_77" data-name="Path 77" d="M153.038,6.172c1.405.176,2.837.3,4.173.337V0l-.03.026A16.368,16.368,0,0,0,153.038,6.172Z" transform="translate(-144.938)" fill="#fff"/>
        <path id="Path_78" data-name="Path 78" d="M314.146,13.889c1.413-.22,2.745-.481,3.86-.743a13.088,13.088,0,0,0-7.044-4.753A19.1,19.1,0,0,1,314.146,13.889Z" transform="translate(-294.492 -7.948)" fill="#fff"/>
        <path id="Path_79" data-name="Path 79" d="M157.984,379.6v-6.367c-1.307.038-2.726.166-4.13.347A16.077,16.077,0,0,0,157.984,379.6Z" transform="translate(-145.711 -353.452)" fill="#fff"/>
        <path id="Path_80" data-name="Path 80" d="M55.084,384.146c-1.382.218-2.7.475-3.819.734a13.088,13.088,0,0,0,6.938,4.638A19.106,19.106,0,0,1,55.084,384.146Z" transform="translate(-48.56 -363.783)" fill="#fff"/>
        <path id="Path_81" data-name="Path 81" d="M6.2,125.661c-1.6-.255-3.093-.559-4.279-.857a12.985,12.985,0,0,0-1.684,5.682H5.364a20.315,20.315,0,0,1,.834-4.826Z" transform="translate(-0.235 -118.188)" fill="#fff"/>
        <path id="Path_82" data-name="Path 82" d="M261.772,404.42v4.714a13.078,13.078,0,0,0,1.616-1.692A10.7,10.7,0,0,1,261.772,404.42Z" transform="translate(-247.909 -382.983)" fill="#fff"/>
        <path id="Path_83" data-name="Path 83" d="M5.364,262H.235a12.98,12.98,0,0,0,1.753,5.8c1.224-.3,2.691-.6,4.244-.856A20.41,20.41,0,0,1,5.364,262Z" transform="translate(-0.235 -248.112)" fill="#fff"/>
        <path id="Path_84" data-name="Path 84" d="M56.638,8.394a13.088,13.088,0,0,0-7.05,4.76c1.117.261,2.45.521,3.864.74A19.1,19.1,0,0,1,56.638,8.394Z" transform="translate(-46.972 -7.949)" fill="#fff"/>
        <path id="Path_85" data-name="Path 85" d="M291.357,227.4a9.575,9.575,0,0,1-4.941-2.031.79.79,0,0,0-1.012,0,9.572,9.572,0,0,1-4.94,2.03.794.794,0,0,0-.7.79v2.681a9.372,9.372,0,0,0,3.027,7.052l2.6,2.27a.8.8,0,0,0,1.046,0l2.6-2.27a9.373,9.373,0,0,0,3.027-7.052v-2.681A.8.8,0,0,0,291.357,227.4Zm-2.128,4.005-2.756,2.756a.794.794,0,0,1-1.124,0l-1.484-1.484a.795.795,0,1,1,1.124-1.124l.922.922,2.194-2.194a.795.795,0,0,1,1.124,1.124Z" transform="translate(-264.945 -213.252)" fill="#fff"/>
      </g>
    </g>
  </g>
</svg>
