<svg xmlns="http://www.w3.org/2000/svg" width="36.86" height="36.86" viewBox="0 0 36.86 36.86">
  <g id="Group_1" data-name="Group 1" transform="translate(-557 -133)">
    <g id="Group_13371" data-name="Group 13371" transform="translate(537 117)">
      <rect id="Rectangle_4" data-name="Rectangle 4" width="36.86" height="36.86" rx="8" transform="translate(20 16)" fill="#eda2a5"/>
    </g>
    <g id="Frame_5_" data-name="Frame (5)" transform="translate(564.277 140.618)">
      <path id="Path_1" data-name="Path 1" d="M2.723,3.382V18.692H18.74V3.382ZM17.662,17.612H3.8V11.575h13.86v6.037Zm0-7.115H3.8V4.46h13.86V10.5Z" fill="#fff"/>
      <path id="Path_2" data-name="Path 2" d="M17.289,11.948H4.174v5.29H17.287v-5.29ZM5.8,17.051H4.352V12.464H5.8Zm1.778,0H6.13V12.464H7.578Zm1.78,0H7.909V12.464H9.357Zm1.81,0H9.719V12.464h1.448Zm1.78,0H11.5V12.464h1.448Zm4.148-.007H13.241v-.822h3.854Zm0-1.05H13.241V14.84h3.854Zm0-1.4H13.668v-.725h3.427Z" fill="#fff"/>
      <path id="Path_3" data-name="Path 3" d="M17.289,4.834H4.174v5.29H17.287V4.834ZM5.631,9.95H4.35V5.313H5.631Zm1.574,0H5.924V5.313H7.2Zm1.574,0H7.5V5.313H8.778Zm1.574,0H9.071V5.313h1.281Zm1.733-.017L10.563,5.791l1.048-.385,1.52,4.14Zm2.287.017-2.243-3.8.961-.568,2.245,3.8Z" fill="#fff"/>
    </g>
  </g>
</svg>
