<svg xmlns="http://www.w3.org/2000/svg" width="36.86" height="36.86" viewBox="0 0 36.86 36.86">
  <g id="Group_3" data-name="Group 3" transform="translate(-1794 -172)">
    <g id="Group_13371" data-name="Group 13371" transform="translate(1774 156)">
      <rect id="Rectangle_4" data-name="Rectangle 4" width="36.86" height="36.86" rx="8" transform="translate(20 16)" fill="#89cdff"/>
    </g>
    <path id="bx_bxs-coffee" d="M5,2H7V5H5ZM9,2h2V5H9Zm4,0h2V5H13Zm6,7H17V8a1,1,0,0,0-1-1H4A1,1,0,0,0,3,8V18a3,3,0,0,0,3,3h8a3,3,0,0,0,3-3h2a2,2,0,0,0,2-2V11A2,2,0,0,0,19,9Zm-2,7V11h2l0,5Z" transform="translate(1800 179)" fill="#fff"/>
  </g>
</svg>
