<svg xmlns="http://www.w3.org/2000/svg" width="36.86" height="36.86" viewBox="0 0 36.86 36.86">
  <g id="Group_15" data-name="Group 15" transform="translate(14446 4432)">
    <g id="Group_14" data-name="Group 14">
      <rect id="Rectangle_4" data-name="Rectangle 4" width="36.86" height="36.86" rx="8" transform="translate(-14446 -4432)" fill="#e7a4a6"/>
      <g id="time" transform="translate(-14439 -4425)">
        <g id="Group_11" data-name="Group 11" transform="translate(10.151 5.105)">
          <g id="Group_10" data-name="Group 10">
            <path id="Path_72" data-name="Path 72" d="M240.942,126.62l-3.068-2.3v-4.688a.852.852,0,0,0-1.7,0v5.114a.851.851,0,0,0,.341.682l3.409,2.557a.852.852,0,0,0,1.023-1.364Z" transform="translate(-236.169 -118.779)" fill="#fff"/>
          </g>
        </g>
        <g id="Group_13" data-name="Group 13">
          <g id="Group_12" data-name="Group 12">
            <path id="Path_73" data-name="Path 73" d="M11,0a11,11,0,1,0,11,11A11.015,11.015,0,0,0,11,0Zm0,20.3A9.3,9.3,0,1,1,20.3,11,9.31,9.31,0,0,1,11,20.3Z" fill="#fff"/>
          </g>
        </g>
      </g>
    </g>
  </g>
</svg>
