<svg width="162" height="158" viewBox="0 0 162 158" fill="none" xmlns="http://www.w3.org/2000/svg">
<path d="M113.645 150.137L113.891 147.68H113.645C111.682 147.68 109.964 147.68 108 147.68V150.137C109.964 150.137 111.682 150.137 113.645 150.137ZM119.536 150.137C121.5 150.137 123.464 150.137 125.182 150.137V147.68C123.218 147.68 121.5 147.68 119.536 147.68V150.137ZM102.355 150.137V147.68C100.391 147.68 98.6727 147.68 96.7091 147.68V150.137C98.4273 150.137 100.391 150.137 102.355 150.137ZM130.827 149.891C132.791 149.891 134.755 149.891 136.473 149.645V147.188C134.509 147.188 132.791 147.188 130.827 147.434V149.891ZM90.8182 149.891V147.434C88.8545 147.434 87.1364 147.188 85.1727 147.188V149.645C87.1364 149.645 89.1 149.645 90.8182 149.891ZM142.364 149.645C144.327 149.645 146.045 149.4 148.009 149.4L147.764 146.942C145.8 146.942 144.082 147.188 142.118 147.188L142.364 149.645ZM79.5273 149.4L79.7727 146.942C77.8091 146.942 76.0909 146.697 74.1273 146.697L73.8818 149.154C75.6 149.154 77.5636 149.154 79.5273 149.4ZM153.655 148.908C155.618 148.908 157.336 148.663 159.3 148.663L159.055 146.205C157.091 146.451 155.373 146.451 153.409 146.451L153.655 148.908ZM67.9909 148.663L68.2364 146.205C66.5182 146.205 64.8 145.96 63.0818 145.714H62.5909L62.3455 148.171H62.8364C64.5545 148.417 66.2727 148.417 67.9909 148.663ZM56.7 147.68L56.9455 145.222C54.9818 144.977 53.2636 144.731 51.3 144.485L50.8091 146.942C52.7727 147.188 54.7364 147.434 56.7 147.68ZM45.1636 145.714L45.6545 143.257C43.6909 142.765 41.9727 142.274 40.2545 141.782L39.5182 144.24C41.4818 144.977 43.2 145.468 45.1636 145.714ZM34.1182 142.274L35.1 140.062C33.3818 139.325 31.6636 138.342 30.1909 137.605L28.9636 139.816C30.6818 140.554 32.4 141.537 34.1182 142.274ZM24.3 135.885L26.0182 133.919C24.5454 132.691 23.3182 131.216 22.3363 129.988L20.3727 131.462C21.3545 133.182 22.8273 134.656 24.3 135.885ZM36.0818 126.547V124.09C34.3636 124.09 32.6455 123.844 30.6818 123.353L29.9454 125.81C32.1545 126.056 34.1182 126.547 36.0818 126.547ZM17.1818 126.547L19.6364 125.319C18.9 123.599 18.4091 121.879 17.9182 120.159L15.4636 120.65C15.9545 122.616 16.4454 124.582 17.1818 126.547ZM41.9727 125.81C43.9364 125.319 45.9 124.336 47.3727 123.107L45.9 121.142C44.6727 122.124 42.9545 123.107 41.2364 123.599L41.9727 125.81ZM24.5455 123.353L25.5273 121.142C23.8091 120.404 22.3364 119.421 20.8636 118.193L19.3909 120.159C21.1091 121.633 22.8273 122.616 24.5455 123.353ZM51.3 118.193C52.2818 116.473 52.7727 114.261 52.7727 112.295L50.3182 112.05C50.3182 113.77 49.8273 115.49 49.0909 116.964L51.3 118.193ZM14.9727 116.473L16.6909 114.753H17.4273C17.4273 113.033 17.6727 111.067 18.4091 109.347L15.9545 108.61C15.4636 109.838 15.2182 111.313 15.2182 112.787C14.4818 112.05 13.9909 111.313 13.2545 110.33L11.2909 111.804C12.5182 113.524 13.7455 114.998 14.9727 116.473ZM7.85454 107.135L10.0636 105.907C9.08182 104.432 8.34544 102.712 7.60909 100.992L5.39999 101.975C6.13637 103.695 6.87273 105.661 7.85454 107.135ZM49.8273 106.89L52.2818 106.152C51.7909 104.187 50.8091 102.221 49.5818 100.747L47.6182 102.221C48.6 103.449 49.3364 105.17 49.8273 106.89ZM20.6182 104.678C20.8636 104.187 21.1091 103.941 21.3545 103.449C22.0909 102.467 23.0727 101.484 24.0545 100.747L22.5818 98.7807C21.3545 99.7636 20.3727 100.747 19.6364 101.975C19.3909 102.467 18.9 102.958 18.6545 103.449L20.6182 104.678ZM43.9364 98.535L45.4091 96.5692C43.4454 95.3406 41.7273 94.6034 39.5182 94.3577L39.0273 96.8149C40.7455 97.0607 42.4636 97.5521 43.9364 98.535ZM28.4727 97.7978C30.1909 97.0607 31.9091 96.5692 33.6273 96.3235L33.3818 93.8663C31.4182 94.112 29.4545 94.6034 27.4909 95.3406L28.4727 97.7978ZM3.19092 96.5692L5.64545 95.832C5.15454 94.112 4.66362 92.3919 4.17271 90.4261L1.71817 90.9176C1.96362 92.8834 2.45454 94.8491 3.19092 96.5692ZM0.490891 85.2659L2.94545 85.0202C2.69998 83.3002 2.45454 81.3344 2.45454 79.3686H0C0.245453 81.3344 0.245438 83.3002 0.490891 85.2659ZM2.45454 73.7169C2.45454 71.7512 2.69998 70.0311 2.94545 68.0653L0.490891 67.8196C0.245438 69.7854 0 71.7512 0 73.7169H2.45454ZM3.92726 62.6594C4.17271 60.9393 4.66364 58.9736 5.15454 57.2535L2.7 56.5163C2.20909 58.4821 1.71819 60.2022 1.22726 62.168L3.92726 62.6594ZM6.87273 51.8476C7.60909 50.1275 8.34546 48.4075 9.08182 46.6874L6.87273 45.7045C6.13635 47.4246 5.39999 49.3904 4.66364 51.1104L6.87273 51.8476ZM11.5364 41.5272C12.5182 39.8072 13.2545 38.3328 14.2364 36.6128L12.0273 35.3841C11.0455 37.1042 10.0636 38.8243 9.32727 40.5443L11.5364 41.5272ZM17.1818 31.6983C18.1636 30.2239 19.3909 28.5039 20.3727 27.0295L18.4091 25.5552C17.1818 27.0295 16.2 28.7496 15.2182 30.224L17.1818 31.6983ZM23.8091 22.6065C25.0364 21.1322 26.2636 19.6579 27.4909 18.1835L25.5273 16.4635C24.3 17.9378 23.0727 19.4121 21.8455 20.8865L23.8091 22.6065ZM31.1727 14.0062C32.4 12.5319 33.6273 11.3033 35.1 9.82893L33.3818 8.10886C31.9091 9.5832 30.6818 11.0575 29.4545 12.2862L31.1727 14.0062ZM39.0273 5.89736C40.2545 4.66874 41.7273 3.1944 42.9545 1.96579L41.2364 0C39.7636 1.22862 38.5364 2.70296 37.0636 3.93157L39.0273 5.89736Z" fill="#EA6612"/>
<path d="M151.691 158L149.973 156.28L158.318 147.434L148.991 139.571L150.464 137.605L162 147.188L151.691 158Z" fill="#EA6612"/>
</svg>
