<svg width="37" height="37" viewBox="0 0 37 37" fill="none" xmlns="http://www.w3.org/2000/svg">
<rect width="36.8604" height="36.8604" rx="8" fill="#F5A275"/>
<g clip-path="url(#clip0_88_5)">
<path d="M18.0425 24.7732C19.2039 24.7732 20.1453 23.8317 20.1453 22.6704C20.1453 21.509 19.2039 20.5675 18.0425 20.5675C16.8811 20.5675 15.9396 21.509 15.9396 22.6704C15.9396 23.8317 16.8811 24.7732 18.0425 24.7732Z" fill="white"/>
<path d="M23.0682 17.6039C23.037 17.5718 23.004 17.5432 22.972 17.5138L22.8775 17.4245C22.8619 17.408 22.8446 17.3959 22.8246 17.3803C20.1055 14.9099 15.9439 15.0078 13.3487 17.603L13.0445 17.9081L12.6232 18.3294C12.1101 18.8426 12.1127 19.679 12.6267 20.193C13.1416 20.7088 13.978 20.7096 14.4903 20.1965L15.2167 19.4701C16.8671 17.8206 19.5516 17.8206 21.2011 19.4693L21.7255 19.9772C22.2335 20.4851 23.0621 20.4843 23.5727 19.9729C23.8197 19.7267 23.9558 19.3982 23.9567 19.0489C23.9575 18.7013 23.8232 18.3728 23.5761 18.1274L23.0682 17.6039Z" fill="white"/>
<path d="M26.6507 15.0044L26.2138 14.5675C26.2121 14.5658 26.2112 14.5632 26.2077 14.5623L25.8628 14.2156C25.8021 14.1558 25.7362 14.1037 25.6669 14.0587C21.2349 10.1676 14.4938 10.2872 10.2031 14.4149C10.1823 14.434 10.1589 14.447 10.1381 14.4678L9.34932 15.2575C8.88125 15.7247 8.88385 16.4849 9.35452 16.9555C9.82433 17.4253 10.5845 17.4288 11.0526 16.9599L11.8414 16.1719C11.8466 16.165 11.8509 16.1589 11.8561 16.1546C15.3259 12.8027 20.8301 12.7819 24.3276 16.0861L24.9483 16.7076C25.4155 17.1748 26.1774 17.1731 26.6472 16.7033C27.1161 16.2326 27.1179 15.4716 26.6507 15.0044Z" fill="white"/>
</g>
<defs>
<clipPath id="clip0_88_5">
<rect width="18" height="18" fill="white" transform="translate(9 9)"/>
</clipPath>
</defs>
</svg>
